<svg width="1018" height="738" viewBox="0 0 1018 738" fill="none" xmlns="http://www.w3.org/2000/svg"><path opacity=".1" d="M509 737.43c281.113 0 509-53.95 509-120.5s-227.887-120.5-509-120.5S0 550.38 0 616.93s227.887 120.5 509 120.5z" fill="#6C63FF"/><path d="M606.14 570.98s41.1-3.26 52.93 10.88c11.83 14.14 54.06 46.56 36.63 53.78-17.43 7.22-111-21.61-111-21.61l21.44-43.05z" fill="#FFB9B9"/><path d="M437.17 78.77a21.427 21.427 0 00-17.48-19.49c-6.26-1-13.25.77-18.63-2.6-2.43-1.53-4.17-3.92-6.13-6-7.68-8.21-19.21-12-30.45-12.33-11.24-.33-22.32 2.39-33.12 5.5-21.56 6.21-44.34 15.32-55.81 34.6-17.44 29.35-1.35 68.91-15.14 100.14-6 13.64-17.44 24.78-21.16 39.22-5 19.29 4.86 38.86 12.45 57.28a273.178 273.178 0 0115.44 51.2c3.05 15.48 4.75 31.57 1.31 47-1.51 6.75-4 13.62-2.66 20.4 2 10.26 11.92 16.73 20.94 22l2.35 1.38c13 7.6 26.37 15.36 41.26 17.24 9.25 1.16 19-.12 27-4.85 8-4.73 14.09-13.17 14.77-22.46.76-10.51-5.09-20.35-6.35-30.82a9.368 9.368 0 01.35-4.72c.83-2 2.76-3.29 4.54-4.53 25.64-17.88 39.39-51.34 33.72-82.08-3.86-20.94-15.86-41.76-10.05-62.25 3.21-11.32 11.48-20.49 16.12-31.3a52.544 52.544 0 001.72-36.42c-2.65-8.26-7.45-16.51-5.8-25 2.91-15.08 23-19.89 30.59-33.25 5.63-9.94 2.3-24-7.2-30.32" fill="#B96B6B"/><path opacity=".1" d="M437.17 78.77a21.427 21.427 0 00-17.48-19.49c-6.26-1-13.25.77-18.63-2.6-2.43-1.53-4.17-3.92-6.13-6-7.68-8.21-19.21-12-30.45-12.33-11.24-.33-22.32 2.39-33.12 5.5-21.56 6.21-44.34 15.32-55.81 34.6-17.44 29.35-1.35 68.91-15.14 100.14-6 13.64-17.44 24.78-21.16 39.22-5 19.29 4.86 38.86 12.45 57.28a273.178 273.178 0 0115.44 51.2c3.05 15.48 4.75 31.57 1.31 47-1.51 6.75-4 13.62-2.66 20.4 2 10.26 11.92 16.73 20.94 22l2.35 1.38c13 7.6 26.37 15.36 41.26 17.24 9.25 1.16 19-.12 27-4.85 8-4.73 14.09-13.17 14.77-22.46.76-10.51-5.09-20.35-6.35-30.82a9.368 9.368 0 01.35-4.72c.83-2 2.76-3.29 4.54-4.53 25.64-17.88 39.39-51.34 33.72-82.08-3.86-20.94-15.86-41.76-10.05-62.25 3.21-11.32 11.48-20.49 16.12-31.3a52.544 52.544 0 001.72-36.42c-2.65-8.26-7.45-16.51-5.8-25 2.91-15.08 23-19.89 30.59-33.25 5.63-9.94 2.3-24-7.2-30.32" fill="#000"/><path d="M478.5 602.93h-215v-115l120 46 95-46v115z" fill="#777B9B"/><path opacity=".1" d="M478.5 602.93h-215v-115l120 46 95-46v115z" fill="#000"/><path d="M452.5 613.98s-39 9.32-43 26.4 23 15.53 23 15.53 38-7.77 43-38.83-23-3.1-23-3.1z" fill="#FFB9B9"/><path opacity=".1" d="M452.5 613.98s-39 9.32-43 26.4 23 15.53 23 15.53 38-7.77 43-38.83-23-3.1-23-3.1z" fill="#000"/><path d="M347.77 666.04s-36.77 2.39-37.27 32.22c-.07 4 38.3 5.16 83.85-19.33S443 651.86 443 651.86s-17.6-28.36-30-32.22c-12.4-3.86-65.23 46.4-65.23 46.4z" fill="#CBCDDA"/><path d="M132.5 551.92s-42 35 36 84 153 40 153 40 81.36-9.63 93.68-47.82c12.32-38.19-60.68-70.18-60.68-70.18s-80 0-116-23-106 17-106 17z" fill="#777B9B"/><path d="M359.5 491.92s36 21 85 0c37.7-16.16 120.4-9.82 156.53-6 16.94 1.77 31.45 13.44 36.08 29.83 3.78 13.37 1 29.8-21.62 45.2-50 34-85 44-98 58s-50 21-50 21-47-7-47-17 43-59 43-59-63 58-128-20 24.01-52.03 24.01-52.03z" fill="#777B9B"/><path d="M341.5 350.92l-127-87s60.92-41.31 66.15-78.23a29.999 29.999 0 00-4.15-20.77c-25-40 88 0 88 0a236.262 236.262 0 004.25 31c4.91 24.35 15.27 56.78 36.75 73 37 28-64 82-64 82z" fill="#FFB9B9"/><path opacity=".1" d="M368.75 195.88a74.055 74.055 0 01-88.1-10.19 29.999 29.999 0 00-4.15-20.77c-25-40 88 0 88 0a236.34 236.34 0 004.25 30.96z" fill="#000"/><path d="M331.5 203.93c40.869 0 74-33.131 74-74 0-40.87-33.131-74-74-74s-74 33.13-74 74c0 40.869 33.131 74 74 74z" fill="#FFB9B9"/><path opacity=".1" d="M377.5 227.92s-15 88-40 83-103-93-103-93-81 27-68 93 26 122-1 143-44 119-44 119 86-36 131-22 91 7 102-6 27-41 27-41-23-34-12-51 25-18 33-66 71-65 59-92-35-67-84-67z" fill="#000"/><path d="M377.5 223.92s-15 88-40 83-103-93-103-93-81 27-68 93 26 122-1 143-44 119-44 119 86-36 131-22 91 7 102-6 27-41 27-41-23-34-12-51 25-18 33-66 71-65 59-92-35-67-84-67z" fill="#CBCDDA"/><path d="M437.5 584.92s40-10 54 2 61 37 45 47-113-3-113-3l14-46z" fill="#FFB9B9"/><g opacity=".05" fill="#000"><path opacity=".05" d="M327.5 306.92c2.337.441 4.755.089 6.87-1-27.78-10.72-99.87-92-99.87-92s-2.84.95-7.38 2.92c13.78 15.31 78.11 85.63 100.38 90.08zM451.5 290.92c27.58-10.61-51 44-59 92s-22 49-33 66 12 51 12 51-16 28-27 41c-6.3 7.45-24.09 12.91-46.59 13.6 27.14.86 49.38-5.09 56.59-13.6 11-13 27-41 27-41s-23-34-12-51 25-18 33-66 42.5-89.5 49-92zM122.27 564.75c-.51 2.67-.77 4.18-.77 4.18s55.92-23.41 101.18-25.13c-34.93-1.45-80.07 13.41-100.41 20.95z"/></g><path d="M454.5 285.92s9 1 18 48 44 92 44 92a217.854 217.854 0 0132 61c12 36 65.5 83.5 84.5 85.5 0 0-36.5 36.5-32.5 46.5s-4 0-4 0-50-19-61-50-59-81-59-81-64-124-67-144 45-58 45-58z" fill="#CBCDDA"/><path opacity=".1" d="M179 454.42s77 9 94 33 95.75-13.94 95.75-13.94" fill="#000"/><path opacity=".1" d="M254.5 317.92s33 121 45 136 105 138 149 130c0 0-13 56-22 58 0 0-91-90-122-89 0 0-57-47-63-70s-54-98-54-98-24-53-14-76 63-13 81 9z" fill="#000"/><path d="M255.5 315.92s33 121 45 136 105 138 149 130c0 0-13 56-22 58 0 0-91-90-122-89 0 0-57-47-63-70s-54-98-54-98-24-53-14-76 63-13 81 9z" fill="#CBCDDA"/><path opacity=".1" d="M385.17 59.77a21.427 21.427 0 00-17.48-19.49c-6.26-1-13.25.77-18.63-2.6-2.43-1.53-4.17-3.92-6.13-6-7.68-8.21-19.21-12-30.45-12.33-11.24-.33-22.32 2.39-33.12 5.5-21.56 6.21-44.34 15.32-55.81 34.6-17.44 29.35-1.35 68.91-15.14 100.14-6 13.64-17.44 24.78-21.16 39.22-5 19.29 4.86 38.86 12.45 57.28a273.178 273.178 0 0115.44 51.2c3.05 15.48 4.75 31.57 1.31 47-1.51 6.75-4 13.62-2.66 20.4 2 10.26 11.92 16.73 20.94 22l2.35 1.38c13 7.6 26.37 15.36 41.26 17.24 9.25 1.16 19-.12 27-4.85 8-4.73 14.09-13.17 14.77-22.46.76-10.51-5.09-20.35-6.35-30.82a9.368 9.368 0 01.35-4.72c.83-2 2.76-3.29 4.54-4.53 25.64-17.88 39.39-51.34 33.72-82.08-3.86-20.94-15.86-41.76-10.05-62.25 3.21-11.32 11.48-20.49 16.12-31.3a52.544 52.544 0 001.72-36.42c-2.65-8.26-7.45-16.51-5.8-25 2.91-15.08 23-19.89 30.59-33.25 5.63-9.94 2.3-24-7.2-30.32" fill="#000"/><path d="M383.17 58.77a21.427 21.427 0 00-17.48-19.49c-6.26-1-13.25.77-18.63-2.6-2.43-1.53-4.17-3.92-6.13-6-7.68-8.21-19.21-12-30.45-12.33-11.24-.33-22.32 2.39-33.12 5.5-21.56 6.21-44.34 15.32-55.81 34.6-17.44 29.35-1.35 68.91-15.14 100.14-6 13.64-17.44 24.78-21.16 39.22-5 19.29 4.86 38.86 12.45 57.28a273.178 273.178 0 0115.44 51.2c3.05 15.48 4.75 31.57 1.31 47-1.51 6.75-4 13.62-2.66 20.4 2 10.26 11.92 16.73 20.94 22l2.35 1.38c13 7.6 26.37 15.36 41.26 17.24 9.25 1.16 19-.12 27-4.85 8-4.73 14.09-13.17 14.77-22.46.76-10.51-5.09-20.35-6.35-30.82a9.368 9.368 0 01.35-4.72c.83-2 2.76-3.29 4.54-4.53 25.64-17.88 39.39-51.34 33.72-82.08-3.86-20.94-15.86-41.76-10.05-62.25 3.21-11.32 11.48-20.49 16.12-31.3a52.544 52.544 0 001.72-36.42c-2.65-8.26-7.45-16.51-5.8-25 2.91-15.08 23-19.89 30.59-33.25 5.63-9.94 2.3-24-7.2-30.32" fill="#B96B6B"/><path d="M451.2 694.21a11.671 11.671 0 003.83-5.78c.5-2.3-.48-5.05-2.68-5.89-2.46-.94-5.09.76-7.08 2.49-1.99 1.73-4.28 3.69-6.89 3.32a10.488 10.488 0 003.24-9.81 4.104 4.104 0 00-.9-2c-1.37-1.46-3.84-.83-5.48.32-5.2 3.66-6.65 10.72-6.68 17.08-.52-2.29-.08-4.68-.1-7-.02-2.32-.66-5-2.64-6.22a8 8 0 00-4-.95c-2.34-.09-4.94.15-6.54 1.86-2 2.12-1.47 5.69.26 8 1.73 2.31 4.35 3.8 6.77 5.42a14.995 14.995 0 014.84 4.61c.147.261.267.536.36.82h14.63a40.833 40.833 0 009.06-6.27z" fill="#B9CCED"/><path d="M579.19 642.48H474.76a6.5 6.5 0 00-6.5 6.5v3.59a6.5 6.5 0 006.5 6.5h104.43a6.5 6.5 0 006.5-6.5v-3.59a6.5 6.5 0 00-6.5-6.5z" fill="#535461"/><path opacity=".7" d="M803.36 457.49H567.95c-15.585 0-28.22 12.635-28.22 28.22v145.36c0 15.585 12.635 28.22 28.22 28.22h235.41c15.585 0 28.22-12.635 28.22-28.22V485.71c0-15.585-12.635-28.22-28.22-28.22z" fill="url(#paint0_linear)"/><path d="M794.57 461.21H571.78c-14.823 0-26.84 12.017-26.84 26.84v144.39c0 14.823 12.017 26.84 26.84 26.84h222.79c14.823 0 26.84-12.017 26.84-26.84V488.05c0-14.823-12.017-26.84-26.84-26.84z" fill="#3E3F49"/><path d="M798.4 461.21H575.61c-14.823 0-26.84 12.017-26.84 26.84v144.39c0 14.823 12.017 26.84 26.84 26.84H798.4c14.823 0 26.84-12.017 26.84-26.84V488.05c0-14.823-12.017-26.84-26.84-26.84z" fill="#535461"/><path d="M699.92 567.81a8.93 8.93 0 008.93-8.93 8.93 8.93 0 00-8.93-8.93 8.93 8.93 0 00-8.93 8.93 8.93 8.93 0 008.93 8.93z" fill="#E0E0E0"/><path opacity=".5" d="M903.557 37.85H633.895v373.682h269.662V37.85z" fill="url(#paint1_linear)"/><path d="M900.126 40.603h-262.8v365.424h262.8V40.603z" fill="#fff"/><path d="M834.254 30.954H703.883v31.67h130.371v-31.67z" fill="url(#paint2_linear)"/><path d="M769.069 0c-10.066 0-18.225 8.382-18.225 18.718 0 10.337 8.159 18.719 18.225 18.719s18.224-8.382 18.224-18.718C787.293 8.381 779.135 0 769.069 0zm0 29.516a10.741 10.741 0 01-6.056-1.68 10.789 10.789 0 01-4.089-4.786 10.829 10.829 0 01-.729-6.26 10.808 10.808 0 012.88-5.601 10.739 10.739 0 0111.765-2.47 10.777 10.777 0 014.878 3.972 10.82 10.82 0 011.835 6.027 10.691 10.691 0 01-3.017 7.572 10.628 10.628 0 01-7.467 3.226z" fill="url(#paint3_linear)"/><path d="M832.882 30.968H705.256v30.28h127.626v-30.28z" fill="#B9CCED"/><path d="M769.069 1.376c-3.529 0-6.978 1.05-9.912 3.016a17.877 17.877 0 00-6.57 8.03 17.94 17.94 0 00-1.016 10.338 17.914 17.914 0 004.883 9.161 17.825 17.825 0 009.134 4.897c3.461.69 7.048.336 10.308-1.018a17.848 17.848 0 008.006-6.59 17.925 17.925 0 003.007-9.94c0-4.746-1.88-9.297-5.225-12.653a17.815 17.815 0 00-12.615-5.24zm0 28.216c-2.036 0-4.026-.605-5.718-1.74a10.314 10.314 0 01-3.791-4.633 10.352 10.352 0 01-.586-5.964 10.327 10.327 0 012.817-5.285 10.28 10.28 0 015.27-2.825 10.262 10.262 0 015.946.587 10.3 10.3 0 014.62 3.802 10.351 10.351 0 01-1.28 13.034 10.28 10.28 0 01-7.278 3.024z" fill="#B9CCED"/><path d="M705.942 99.786h-56.265v56.431h56.265v-56.43z" fill="url(#paint4_linear)"/><path d="M706.134 211.616h-56.265v56.431h56.265v-56.431z" fill="url(#paint5_linear)"/><path d="M706.326 322.069h-56.265V378.5h56.265v-56.431z" fill="url(#paint6_linear)"/><path d="M703.883 101.851h-52.148v52.302h52.148v-52.302z" fill="#A7E9AF"/><path d="M703.883 212.648h-52.148v52.302h52.148v-52.302zM703.883 323.445h-52.148v52.302h52.148v-52.302z" fill="#DDD"/><path d="M809.669 117.996h-71.478v5.003h71.478v-5.003zM856.211 125.504h-118.02v5.003h118.02v-5.003zM847.902 133.005H738.191v5.003h109.711v-5.003zM809.669 228.793h-71.478v5.003h71.478v-5.003zM856.211 236.301h-118.02v5.003h118.02v-5.003zM847.902 243.802H738.191v5.003h109.711v-5.003zM809.669 339.59h-71.478v5.003h71.478v-5.003zM856.211 347.098h-118.02v5.003h118.02v-5.003zM847.902 354.599H738.191v5.003h109.711v-5.003z" fill="#E8E8E8"/><path d="M665.973 124.884l9.469 8.712 13.414-19.785 4.735 3.957-18.149 23.743-13.415-15.037 3.946-1.59z" fill="url(#paint7_linear)"/><path d="M667.517 125.249l8.234 7.57 11.664-17.204 4.117 3.44-15.781 20.646-11.665-13.076 3.431-1.376z" fill="#fff"/><g opacity=".1" fill="#000"><path opacity=".1" d="M959.612 551.432c1.24-.08 2.48-.21 3.71-.39a9.712 9.712 0 004.18-1.4 12.437 12.437 0 015 8.8c.048-.435.071-.873.07-1.31a12.39 12.39 0 00-5-10 9.833 9.833 0 01-4.18 1.4l-1 .12a25.515 25.515 0 01-2.78 2.78zM960.112 547.192c.414.005.828.035 1.24.09.65-.69 1.29-1.43 1.94-2.15a12.397 12.397 0 00-15.6 12c0 .42 0 .83.06 1.24a12.418 12.418 0 0112.36-11.18z"/></g><g opacity=".1" fill="#000"><path opacity=".1" d="M900.982 551.432c-1.24-.08-2.48-.21-3.71-.39a9.646 9.646 0 01-4.18-1.4 12.428 12.428 0 00-5 8.8 11.25 11.25 0 01-.07-1.31 12.381 12.381 0 015-10 9.779 9.779 0 004.18 1.4l1 .12a23.546 23.546 0 002.78 2.78zM900.482 547.192c-.419.005-.836.035-1.25.09-.64-.69-1.28-1.43-1.93-2.15a12.397 12.397 0 0115.6 12c0 .42 0 .83-.06 1.24a12.424 12.424 0 00-12.36-11.18z"/></g><defs><linearGradient id="paint0_linear" x1="685.66" y1="659.28" x2="685.66" y2="457.49" gradientUnits="userSpaceOnUse"><stop stop-color="gray" stop-opacity=".25"/><stop offset=".54" stop-color="gray" stop-opacity=".12"/><stop offset="1" stop-color="gray" stop-opacity=".1"/></linearGradient><linearGradient id="paint1_linear" x1="768.726" y1="411.532" x2="768.726" y2="37.85" gradientUnits="userSpaceOnUse"><stop stop-color="gray" stop-opacity=".25"/><stop offset=".54" stop-color="gray" stop-opacity=".12"/><stop offset="1" stop-color="gray" stop-opacity=".1"/></linearGradient><linearGradient id="paint2_linear" x1="58262.6" y1="2912.93" x2="58262.6" y2="1455.48" gradientUnits="userSpaceOnUse"><stop stop-color="gray" stop-opacity=".25"/><stop offset=".54" stop-color="gray" stop-opacity=".12"/><stop offset="1" stop-color="gray" stop-opacity=".1"/></linearGradient><linearGradient id="paint3_linear" x1="22792.3" y1="4001.65" x2="22792.3" y2="1965.45" gradientUnits="userSpaceOnUse"><stop stop-color="gray" stop-opacity=".25"/><stop offset=".54" stop-color="gray" stop-opacity=".12"/><stop offset="1" stop-color="gray" stop-opacity=".1"/></linearGradient><linearGradient id="paint4_linear" x1="18007.5" y1="12909.6" x2="18007.5" y2="8282.26" gradientUnits="userSpaceOnUse"><stop stop-color="gray" stop-opacity=".25"/><stop offset=".54" stop-color="gray" stop-opacity=".12"/><stop offset="1" stop-color="gray" stop-opacity=".1"/></linearGradient><linearGradient id="paint5_linear" x1="18023.5" y1="22191.4" x2="18023.5" y2="17564.1" gradientUnits="userSpaceOnUse"><stop stop-color="gray" stop-opacity=".25"/><stop offset=".54" stop-color="gray" stop-opacity=".12"/><stop offset="1" stop-color="gray" stop-opacity=".1"/></linearGradient><linearGradient id="paint6_linear" x1="18039.4" y1="31359" x2="18039.4" y2="26731.7" gradientUnits="userSpaceOnUse"><stop stop-color="gray" stop-opacity=".25"/><stop offset=".54" stop-color="gray" stop-opacity=".12"/><stop offset="1" stop-color="gray" stop-opacity=".1"/></linearGradient><linearGradient id="paint7_linear" x1="10399.4" y1="5809.61" x2="10399.4" y2="4694.44" gradientUnits="userSpaceOnUse"><stop stop-color="gray" stop-opacity=".25"/><stop offset=".54" stop-color="gray" stop-opacity=".12"/><stop offset="1" stop-color="gray" stop-opacity=".1"/></linearGradient></defs></svg>