<svg aria-hidden="true" width="1377" height="86" viewBox="0 0 1377 86" fill="none" xmlns="http://www.w3.org/2000/svg"><g opacity=".93" fill="#DADADA"><path d="M377.088 22.042a.85.85 0 01-.019.572l-2.391 5.89a.714.714 0 01-.186.267.676.676 0 01-.279.152.71.71 0 01-.322.01.803.803 0 01-.309-.135l-5.38-3.816a.919.919 0 01-.357-.53.837.837 0 01.079-.612.687.687 0 01.468-.336.763.763 0 01.583.136l4.621 3.278 2.054-5.06a.692.692 0 01.736-.436.81.81 0 01.433.2c.125.112.219.258.269.42zM375.274 16.151c.05.162.054.333.011.488a.735.735 0 01-.253.384.682.682 0 01-.426.143.784.784 0 01-.447-.149l-4.621-3.277-2.053 5.059a.702.702 0 01-.417.404.737.737 0 01-.589-.055.905.905 0 01-.414-1.105l2.391-5.89a.737.737 0 01.186-.267.675.675 0 01.279-.151.712.712 0 01.323-.01.81.81 0 01.309.135l5.379 3.815a.906.906 0 01.342.476zM378.949 19.976c.031.102.033.21.005.316a.69.69 0 01-.167.294.896.896 0 01-.302.21c-.118.05-.246.078-.374.081l-13.136.277a.951.951 0 01-.321-.04.785.785 0 01-.268-.14.617.617 0 01-.173-.222.555.555 0 01-.051-.266.604.604 0 01.079-.269.795.795 0 01.197-.23.955.955 0 01.284-.153c.105-.036.216-.054.326-.054l13.136-.276a.892.892 0 01.486.125.638.638 0 01.279.347z"/></g><g opacity=".79" fill="#DADADA"><path d="M898.826 73.475a.82.82 0 01-.305-.435l-1.517-5.543a.628.628 0 01-.011-.288.54.54 0 01.123-.249.605.605 0 01.235-.163.754.754 0 01.305-.05l6.138.229a.933.933 0 01.561.221.789.789 0 01.284.494.558.558 0 01-.16.477.684.684 0 01-.51.182l-5.272-.197 1.302 4.76a.565.565 0 01-.304.682.763.763 0 01-.434.061.946.946 0 01-.435-.18zM903.471 76.978a.852.852 0 01-.281-.358.621.621 0 01-.026-.408.55.55 0 01.237-.313.717.717 0 01.416-.106l5.271.197-1.302-4.761a.578.578 0 01.084-.503.64.64 0 01.468-.245.914.914 0 01.578.156.841.841 0 01.349.465l1.516 5.543c.027.098.03.196.011.289a.54.54 0 01-.123.248.606.606 0 01-.235.163.755.755 0 01-.305.05l-6.137-.228a.926.926 0 01-.521-.189zM898.597 75.915a.565.565 0 01-.18-.232.616.616 0 01-.041-.3.733.733 0 01.108-.303.825.825 0 01.233-.242l9.619-6.579a.828.828 0 01.26-.127.75.75 0 01.279-.025c.091.01.177.037.253.08a.573.573 0 01.278.413.654.654 0 01-.018.266.769.769 0 01-.126.252.833.833 0 01-.212.198l-9.619 6.58a.801.801 0 01-.431.142.641.641 0 01-.403-.123z"/></g><g opacity=".75" fill="#DADADA"><path d="M973.671 60.324a.63.63 0 01.268.294l1.657 3.961c.03.07.042.142.037.212a.402.402 0 01-.067.193.431.431 0 01-.157.14.557.557 0 01-.221.063l-4.549.35a.704.704 0 01-.435-.116.604.604 0 01-.258-.34.409.409 0 01.072-.366.5.5 0 01.359-.177l3.907-.3-1.423-3.401a.411.411 0 01.157-.529.567.567 0 01.315-.081.713.713 0 01.338.097zM969.904 58.131c.104.06.189.145.242.241.054.096.075.2.06.299a.402.402 0 01-.145.25.523.523 0 01-.296.114l-3.907.3 1.423 3.401a.43.43 0 01-.013.378.466.466 0 01-.322.22.684.684 0 01-.441-.066.647.647 0 01-.303-.314l-1.657-3.96a.464.464 0 01-.036-.212.393.393 0 01.067-.194.43.43 0 01.157-.14.554.554 0 01.22-.063l4.549-.349a.698.698 0 01.402.095zM973.603 58.505a.423.423 0 01.155.156.45.45 0 01.059.217.518.518 0 01-.05.233.593.593 0 01-.148.198l-6.455 5.664a.602.602 0 01-.18.115.548.548 0 01-.203.042.478.478 0 01-.194-.038.429.429 0 01-.245-.28.487.487 0 01-.013-.198.569.569 0 01.206-.36l6.455-5.665a.585.585 0 01.304-.141.483.483 0 01.309.056z"/></g><g opacity=".9" fill="#DADADA"><path d="M254.274 55.533a.694.694 0 01-.364.214l-4.607 1.014a.586.586 0 01-.239.004.478.478 0 01-.203-.092.433.433 0 01-.132-.17.464.464 0 01-.037-.22l.271-4.401a.628.628 0 01.191-.4.684.684 0 01.412-.197.506.506 0 01.393.121.452.452 0 01.143.369l-.234 3.78 3.957-.87a.563.563 0 01.332.023c.1.04.179.111.228.204a.487.487 0 01.045.312.639.639 0 01-.156.31zM257.235 52.248a.708.708 0 01-.301.196.59.59 0 01-.338.014.453.453 0 01-.338-.474l.234-3.78-3.956.87a.539.539 0 01-.415-.067.445.445 0 01-.197-.34.593.593 0 01.137-.412.7.7 0 01.39-.244l4.606-1.013a.587.587 0 01.239-.004.485.485 0 01.204.091.434.434 0 01.132.171.476.476 0 01.037.22l-.272 4.4a.61.61 0 01-.162.372zM256.29 55.73a.46.46 0 01-.195.127.57.57 0 01-.248.025.663.663 0 01-.447-.252l-5.314-6.99a.565.565 0 01-.101-.19.473.473 0 01-.017-.2.416.416 0 01.216-.312.521.521 0 01.198-.062.623.623 0 01.221.017.682.682 0 01.368.248l5.314 6.991a.525.525 0 01.112.312.422.422 0 01-.107.287z"/></g><g opacity=".88" fill="#DADADA"><path d="M744.307 65.573a.5.5 0 01-.126-.302l-.153-3.566a.39.39 0 01.033-.177.355.355 0 01.11-.137.387.387 0 01.166-.071.474.474 0 01.193.006l3.714.881a.563.563 0 01.311.203.48.48 0 01.105.336.359.359 0 01-.164.272.436.436 0 01-.337.049l-3.19-.757.132 3.062a.376.376 0 01-.071.242.37.37 0 01-.209.138.48.48 0 01-.274-.016.575.575 0 01-.24-.163zM746.654 68.272a.514.514 0 01-.122-.252.393.393 0 01.041-.253.36.36 0 01.188-.162.456.456 0 01.269-.014l3.189.756-.131-3.062a.367.367 0 01.121-.297.411.411 0 01.32-.093.554.554 0 01.331.165.51.51 0 01.148.326l.153 3.566a.391.391 0 01-.034.177.352.352 0 01-.109.137.39.39 0 01-.166.071.478.478 0 01-.194-.006l-3.713-.881a.556.556 0 01-.291-.178zM743.828 67.034a.335.335 0 01-.078-.163.379.379 0 01.017-.188.476.476 0 01.108-.172.53.53 0 01.176-.12l6.786-2.852a.523.523 0 01.176-.046c.06-.005.12.002.174.018a.387.387 0 01.143.08c.04.036.07.08.09.128a.345.345 0 01.022.157.412.412 0 01-.048.16.532.532 0 01-.269.234l-6.786 2.853a.508.508 0 01-.283.035.387.387 0 01-.228-.124z"/></g><g opacity=".72" fill="#DADADA"><path d="M371.131 59.276a.537.537 0 01-.039.361l-1.79 3.624a.472.472 0 01-.13.16.432.432 0 01-.388.077.509.509 0 01-.189-.098l-3.217-2.632a.573.573 0 01-.201-.349.535.535 0 01.079-.383.443.443 0 01.312-.194.48.48 0 01.362.11l2.764 2.262 1.537-3.113a.438.438 0 01.486-.245c.098.02.19.07.264.145a.57.57 0 01.15.275zM370.265 55.48a.549.549 0 01-.017.309.465.465 0 01-.178.232.435.435 0 01-.275.073.494.494 0 01-.276-.113l-2.764-2.26-1.537 3.111a.449.449 0 01-.283.238.465.465 0 01-.369-.058.563.563 0 01-.239-.32.542.542 0 01.03-.395l1.79-3.624a.471.471 0 01.13-.16.434.434 0 01.388-.077.508.508 0 01.189.097l3.218 2.632a.57.57 0 01.193.315zM372.405 58.048a.359.359 0 01-.012.2.445.445 0 01-.119.179.575.575 0 01-.201.12.64.64 0 01-.24.036l-8.312-.366a.593.593 0 01-.201-.038.484.484 0 01-.163-.1.365.365 0 01-.056-.484.506.506 0 01.136-.137.638.638 0 01.395-.106l8.312.366a.56.56 0 01.301.099c.083.06.139.14.16.231z"/></g><g opacity=".96" fill="#DADADA"><path d="M565.404 74.219a.863.863 0 01-.16-.548l.434-6.232a.682.682 0 01.093-.303.634.634 0 01.217-.22.696.696 0 01.304-.095.826.826 0 01.335.044l6.289 2.166c.206.07.387.217.503.406a.83.83 0 01.116.602.643.643 0 01-.339.445.767.767 0 01-.596.028l-5.402-1.86-.372 5.352a.67.67 0 01-.171.409.664.664 0 01-.392.204.833.833 0 01-.473-.074.977.977 0 01-.386-.324zM568.958 79.315a.886.886 0 01-.162-.46.692.692 0 01.121-.432.643.643 0 01.359-.25.794.794 0 01.47.02l5.402 1.86.373-5.352a.653.653 0 01.27-.495.724.724 0 01.574-.108.95.95 0 01.544.344.875.875 0 01.194.593l-.435 6.231a.68.68 0 01-.092.303.636.636 0 01-.218.22.69.69 0 01-.303.095.828.828 0 01-.335-.044l-6.29-2.165a.959.959 0 01-.472-.36zM564.283 76.68a.568.568 0 01-.103-.298.655.655 0 01.066-.323.845.845 0 01.221-.281.967.967 0 01.33-.178l12.371-3.81a.93.93 0 01.316-.049.812.812 0 01.299.061c.091.04.17.094.233.163.063.07.107.15.131.24a.613.613 0 01.009.276.74.74 0 01-.116.27.955.955 0 01-.514.361l-12.371 3.81a.892.892 0 01-.499.013.662.662 0 01-.373-.255z"/></g><g opacity=".88" fill="#DADADA"><path d="M1282.74 67.901a.91.91 0 01-.52.159l-5.97-.07a.74.74 0 01-.29-.062.558.558 0 01-.33-.417c-.01-.09 0-.186.03-.28l1.77-5.311c.06-.174.19-.33.37-.436.17-.104.38-.149.57-.123.19.025.35.119.44.26.09.14.11.318.05.492l-1.52 4.562 5.13.059c.15.002.29.044.4.123.11.078.18.188.21.315s.01.264-.05.395a.822.822 0 01-.29.334zM1287.44 64.72a.926.926 0 01-.43.155.748.748 0 01-.42-.08.515.515 0 01-.25-.286.58.58 0 01-.01-.39l1.53-4.562-5.13-.06a.672.672 0 01-.49-.2.565.565 0 01-.13-.47.831.831 0 01.31-.467c.16-.123.36-.19.55-.188l5.98.069c.1.001.2.023.29.063a.559.559 0 01.33.417c.01.09 0 .186-.03.279l-1.78 5.311a.766.766 0 01-.32.408zM1285.14 68.715a.574.574 0 01-.28.1.71.71 0 01-.31-.04.752.752 0 01-.46-.435l-4.22-10.07a.691.691 0 01-.02-.51.574.574 0 01.37-.32.725.725 0 01.53.063c.08.043.16.102.22.172.07.07.12.15.15.236l4.21 10.07c.06.136.07.281.04.413a.55.55 0 01-.23.321z"/></g><g opacity=".94" fill="#DADADA"><path d="M5.322 61.49a.98.98 0 01-.307-.444l-1.787-5.552a.694.694 0 01-.033-.286c.01-.09.04-.172.09-.24a.447.447 0 01.196-.15.576.576 0 01.268-.035l5.475.508c.18.017.365.105.517.245.151.14.256.32.291.502a.538.538 0 01-.104.464.506.506 0 01-.44.156l-4.703-.438L6.32 60.99c.045.14.048.277.01.395a.446.446 0 01-.226.265.587.587 0 01-.382.04.922.922 0 01-.4-.199zM9.73 65.168a1.003 1.003 0 01-.279-.367.707.707 0 01-.056-.405.458.458 0 01.186-.298.536.536 0 01.362-.086l4.702.437-1.534-4.768a.596.596 0 01.035-.493.472.472 0 01.397-.22.836.836 0 01.526.18.991.991 0 01.347.476l1.787 5.552a.693.693 0 01.032.286.493.493 0 01-.09.24.446.446 0 01-.195.15.574.574 0 01-.268.035l-5.475-.508a.886.886 0 01-.478-.21zM5.311 63.892a.66.66 0 01-.178-.238.7.7 0 01.011-.593c.045-.09.11-.169.188-.228l8.032-6.063a.601.601 0 01.468-.126c.082.014.16.045.231.092.07.046.132.108.18.18a.688.688 0 01.105.503.684.684 0 01-.092.243.638.638 0 01-.173.186l-8.032 6.063a.591.591 0 01-.74-.019z"/></g><g opacity=".74" fill="#DADADA"><path d="M1371.25 22.97c.18.064.33.175.43.314l3.38 4.628c.06.081.1.17.12.258.02.09.01.177-.01.258a.575.575 0 01-.14.211.642.642 0 01-.24.126l-5.34 1.423a.929.929 0 01-.99-.424.54.54 0 01-.04-.476.524.524 0 01.37-.3l4.58-1.222-2.91-3.975a.67.67 0 01-.13-.37c0-.125.05-.24.14-.33.08-.088.2-.148.35-.17a.85.85 0 01.43.05zM1365.97 21.025c.14.053.27.14.37.25.1.11.16.237.18.364a.523.523 0 01-.09.347.555.555 0 01-.31.207l-4.58 1.222 2.9 3.974c.11.152.15.324.12.479a.516.516 0 01-.31.347.814.814 0 01-.55.012 1 1 0 01-.48-.33l-3.38-4.628a.547.547 0 01-.11-.259.45.45 0 01.01-.257c.02-.081.07-.153.14-.211a.52.52 0 01.24-.127l5.33-1.423a.877.877 0 01.52.033zM1370.53 20.695c.09.034.18.09.24.163.07.074.12.163.15.261s.04.202.02.304a.688.688 0 01-.1.281l-5.75 8.526a.7.7 0 01-.18.185.573.573 0 01-.47.09.653.653 0 01-.23-.107.688.688 0 01-.16-.192.56.56 0 01-.09-.247.769.769 0 01.01-.262.678.678 0 01.11-.236l5.75-8.526a.608.608 0 01.31-.245.582.582 0 01.39.005z"/></g><g opacity=".96" fill="#DADADA"><path d="M1231.62 30.098c.12.104.2.237.24.375l1.32 4.625c.02.081.03.162.02.236a.422.422 0 01-.08.194.35.35 0 01-.17.119.458.458 0 01-.22.02l-4.49-.587a.741.741 0 01-.42-.217.753.753 0 01-.22-.422.442.442 0 01.09-.379.424.424 0 01.37-.114l3.86.504-1.14-3.972a.514.514 0 01.01-.326c.03-.095.1-.17.19-.21.09-.042.2-.05.32-.022.11.028.22.09.32.176zM1228.09 26.936c.1.087.17.195.22.31a.57.57 0 01.04.335.387.387 0 01-.17.24.43.43 0 01-.3.06l-3.85-.504 1.13 3.971c.04.151.03.297-.04.405a.385.385 0 01-.33.17c-.15 0-.3-.06-.43-.165a.895.895 0 01-.28-.403l-1.32-4.624c-.02-.082-.03-.162-.02-.236.01-.075.04-.141.08-.195.05-.054.1-.094.17-.118a.472.472 0 01.22-.02l4.49.586c.14.017.28.084.39.188zM1231.69 28.122c.06.054.11.123.14.201.03.078.05.163.04.247a.5.5 0 01-.06.24.606.606 0 01-.16.183l-6.78 4.744a.475.475 0 01-.57.006.543.543 0 01-.15-.154.676.676 0 01-.07-.2.784.784 0 010-.217.514.514 0 01.23-.345l6.77-4.744a.486.486 0 01.61.038z"/></g><g opacity=".95" fill="#DADADA"><path d="M53.747 12.26c.03.183.014.369-.048.523L51.65 17.93a.623.623 0 01-.147.225.413.413 0 01-.206.109.397.397 0 01-.23-.027.584.584 0 01-.21-.157l-3.574-4.09a.981.981 0 01-.22-.525.941.941 0 01.093-.554c.084-.152.21-.245.352-.258.142-.013.287.055.404.19l3.07 3.513 1.759-4.423a.566.566 0 01.23-.286.383.383 0 01.317-.034c.11.035.212.116.294.231a1 1 0 01.165.414zM52.822 6.652a1.03 1.03 0 01-.023.45.638.638 0 01-.202.325.387.387 0 01-.31.084.53.53 0 01-.307-.185l-3.069-3.513-1.76 4.422c-.067.169-.181.285-.319.325-.137.04-.285-.001-.413-.114a.903.903 0 01-.264-.486 1.01 1.01 0 01.038-.574l2.05-5.148a.623.623 0 01.146-.225.412.412 0 01.207-.108.398.398 0 01.229.026.583.583 0 01.21.157l3.574 4.09a.96.96 0 01.213.474zM55.189 10.565a.675.675 0 01-.016.29.644.644 0 01-.136.252.587.587 0 01-.226.16.553.553 0 01-.27.034l-9.307-1.177a.562.562 0 01-.225-.07.601.601 0 01-.181-.16.649.649 0 01-.13-.472.662.662 0 01.073-.238.619.619 0 01.154-.19.572.572 0 01.444-.123l9.307 1.177a.574.574 0 01.336.168.646.646 0 01.177.349z"/></g><g opacity=".78" fill="#DADADA"><path d="M517.083 11.293a.94.94 0 01.456-.297l5.522-1.468a.593.593 0 01.279-.01c.086.018.163.06.223.12.061.06.104.139.128.23a.72.72 0 01.01.297l-.986 5.986a1.056 1.056 0 01-.282.548.887.887 0 01-.511.276.478.478 0 01-.439-.158c-.103-.122-.143-.302-.111-.498l.847-5.141-4.742 1.26a.55.55 0 01-.383-.025.46.46 0 01-.236-.273.742.742 0 01-.004-.423c.04-.152.12-.3.229-.424zM513.133 15.817a.989.989 0 01.38-.273.607.607 0 01.396-.026.452.452 0 01.272.232.665.665 0 01.05.406l-.847 5.142 4.742-1.26a.517.517 0 01.473.083c.122.1.186.265.178.457a1.005 1.005 0 01-.222.563.964.964 0 01-.492.34l-5.521 1.467a.593.593 0 01-.279.01.452.452 0 01-.223-.12.496.496 0 01-.128-.23.72.72 0 01-.01-.298l.985-5.986c.029-.179.117-.36.246-.507zM514.764 11.065a.646.646 0 01.246-.175.606.606 0 01.572.066.666.666 0 01.203.228l5.13 9.396a.71.71 0 01.078.526.668.668 0 01-.298.428.6.6 0 01-.723-.053.67.67 0 01-.163-.207l-5.13-9.396a.721.721 0 01.085-.813z"/></g><g opacity=".82" fill="#DADADA"><path d="M958.849 26.513c.122.078.22.189.275.311l1.869 4.099c.033.072.05.146.051.216 0 .071-.016.137-.048.194a.353.353 0 01-.138.136.45.45 0 01-.203.054l-4.265.162a.695.695 0 01-.42-.137.719.719 0 01-.269-.357.419.419 0 01.04-.368.4.4 0 01.325-.165l3.663-.138-1.605-3.52a.5.5 0 01-.043-.304.353.353 0 01.151-.227.46.46 0 01.29-.069c.11.008.224.047.327.113zM955.126 24.124a.765.765 0 01.247.255c.058.1.086.207.079.306a.365.365 0 01-.117.249.421.421 0 01-.271.102l-3.663.139 1.605 3.52a.462.462 0 01.016.383.372.372 0 01-.286.21.641.641 0 01-.421-.086.752.752 0 01-.31-.332l-1.869-4.098a.54.54 0 01-.05-.217.382.382 0 01.048-.193.358.358 0 01.137-.136.45.45 0 01.203-.055l4.265-.161a.678.678 0 01.387.114zM958.644 24.66a.51.51 0 01.231.39.532.532 0 01-.154.43l-5.653 5.484a.477.477 0 01-.349.144.457.457 0 01-.186-.047.489.489 0 01-.253-.296.532.532 0 01.139-.56l5.653-5.484a.459.459 0 01.572-.06z"/></g><g opacity=".8" fill="#DADADA"><path d="M63.08 41.979a1.12 1.12 0 01.426-.462l5.71-3.24a.685.685 0 01.306-.093c.1-.005.194.018.277.067.082.049.15.122.2.215.05.094.08.205.088.326l.453 6.89c.015.225-.046.472-.17.686a1.05 1.05 0 01-.492.454.533.533 0 01-.525-.044c-.145-.105-.235-.291-.25-.517l-.39-5.918-4.905 2.783a.628.628 0 01-.428.085.5.5 0 01-.33-.232.824.824 0 01-.113-.466c.005-.179.055-.365.142-.534zM59.89 48.126c.087-.169.208-.313.347-.412.14-.1.29-.15.43-.144a.49.49 0 01.36.176c.092.108.148.26.16.433l.39 5.917 4.904-2.782c.187-.106.382-.123.542-.047.161.076.274.238.314.452.04.213.004.46-.1.686a1.145 1.145 0 01-.454.518l-5.71 3.24a.684.684 0 01-.305.093.495.495 0 01-.278-.067.542.542 0 01-.2-.216.808.808 0 01-.087-.325l-.455-6.89c-.014-.206.036-.43.141-.632zM60.464 42.408a.766.766 0 01.226-.266.682.682 0 01.647-.094.72.72 0 01.284.191l8.073 8.854c.07.072.126.159.164.254a.824.824 0 01-.16.863.726.726 0 01-.244.169.686.686 0 01-.566-.015.728.728 0 01-.235-.18L60.58 43.33a.826.826 0 01-.115-.922z"/></g><g opacity=".73" fill="#DADADA"><path d="M172.999 31.144c.095.25.123.518.079.754l-1.447 7.932a.924.924 0 01-.145.365.574.574 0 01-.592.256.811.811 0 01-.341-.155l-6.199-4.632a1.375 1.375 0 01-.459-.672 1.372 1.372 0 01-.024-.812c.075-.242.227-.413.424-.477.197-.064.421-.014.624.138l5.325 3.979 1.242-6.813a.847.847 0 01.243-.479.564.564 0 01.441-.15.833.833 0 01.48.234c.148.136.27.322.349.532zM170.115 23.519c.08.21.113.433.095.642a.951.951 0 01-.194.524.575.575 0 01-.414.219.741.741 0 01-.486-.164l-5.324-3.978-1.243 6.812c-.048.26-.177.461-.36.561-.183.1-.404.09-.615-.028a1.26 1.26 0 01-.511-.602 1.459 1.459 0 01-.107-.823l1.448-7.931a.91.91 0 01.145-.365.574.574 0 01.592-.256.81.81 0 01.341.155l6.199 4.631c.186.139.34.353.434.603zM174.559 28.288a.977.977 0 01-.061.814.886.886 0 01-.275.299.814.814 0 01-.371.134l-13.482 1.323a.797.797 0 01-.337-.028.833.833 0 01-.301-.167.916.916 0 01-.315-.625.94.94 0 01.199-.677.859.859 0 01.266-.223.809.809 0 01.326-.094l13.482-1.323a.808.808 0 01.522.13.899.899 0 01.347.437z"/></g><g opacity=".89" fill="#DADADA"><path d="M703.793 10.568c.099-.207.247-.379.416-.483l5.657-3.485a.698.698 0 01.305-.105.499.499 0 01.491.267.813.813 0 01.099.325l.686 6.938c.022.227-.032.478-.15.699-.119.22-.292.392-.482.477-.19.084-.381.075-.531-.025-.15-.101-.247-.285-.27-.512l-.588-5.96-4.859 2.994a.637.637 0 01-.43.102.503.503 0 01-.34-.222.825.825 0 01-.13-.466c-.001-.18.043-.37.126-.544zM700.776 16.893a1.19 1.19 0 01.338-.43.71.71 0 01.43-.16c.142 0 .27.057.368.163a.74.74 0 01.175.431l.589 5.959 4.859-2.994c.185-.114.381-.138.546-.067.165.07.284.23.331.444.048.214.02.464-.078.696a1.162 1.162 0 01-.441.54l-5.657 3.485a.697.697 0 01-.305.106.5.5 0 01-.491-.267.813.813 0 01-.099-.326l-.686-6.937a1.231 1.231 0 01.121-.643zM701.168 11.1a.778.778 0 01.219-.277.688.688 0 01.65-.12c.11.036.21.098.293.183l8.441 8.633c.073.07.133.155.174.25a.83.83 0 01-.134.877.702.702 0 01-.812.186.728.728 0 01-.242-.174l-8.442-8.632a.832.832 0 01-.147-.926z"/></g></svg>