<svg width="320" height="320" viewBox="0 0 320 320" fill="none" xmlns="http://www.w3.org/2000/svg">
<path d="M160 320C158.312 320 156.607 319.973 154.933 319.921L154.971 318.705C157.375 318.78 159.827 318.801 162.242 318.768L162.258 319.985C161.507 319.995 160.754 320 160 320ZM169.579 319.718L169.507 318.503C171.914 318.361 174.352 318.162 176.753 317.91L176.88 319.12C174.461 319.374 172.005 319.575 169.579 319.718H169.579ZM147.619 319.528C145.192 319.342 142.74 319.099 140.33 318.803L140.478 317.596C142.87 317.889 145.304 318.131 147.712 318.315L147.619 319.528ZM184.145 318.19L183.963 316.988C186.354 316.625 188.764 316.204 191.123 315.735L191.36 316.928C188.982 317.4 186.555 317.825 184.145 318.19H184.145ZM133.082 317.745C130.684 317.339 128.264 316.872 125.889 316.356L126.147 315.167C128.504 315.679 130.906 316.142 133.285 316.545L133.082 317.745ZM198.511 315.335L198.218 314.154C200.566 313.574 202.926 312.932 205.234 312.247L205.58 313.414C203.254 314.104 200.876 314.75 198.511 315.335ZM118.768 314.638C116.417 314.012 114.05 313.324 111.734 312.591L112.101 311.432C114.399 312.158 116.748 312.841 119.081 313.461L118.768 314.638ZM212.553 311.169L212.154 310.02C214.431 309.228 216.722 308.372 218.964 307.475L219.415 308.605C217.157 309.509 214.849 310.371 212.553 311.169H212.553ZM104.784 310.216C102.5 309.377 100.201 308.471 97.9533 307.524L98.4256 306.402C100.656 307.342 102.937 308.241 105.204 309.074L104.784 310.216ZM226.137 305.734L225.633 304.626C227.821 303.632 230.02 302.571 232.168 301.473L232.722 302.556C230.557 303.663 228.341 304.732 226.137 305.734H226.137ZM91.2562 304.521C89.0607 303.474 86.8569 302.362 84.7068 301.213L85.2801 300.14C87.4141 301.28 89.6007 302.384 91.7796 303.423L91.2562 304.521ZM239.155 299.079L238.553 298.023C240.651 296.826 242.745 295.567 244.776 294.282L245.426 295.31C243.379 296.605 241.27 297.874 239.155 299.079ZM78.3181 297.608C76.2298 296.366 74.1385 295.056 72.1028 293.715L72.7724 292.699C74.7924 294.03 76.8676 295.33 78.9401 296.562L78.3181 297.608ZM251.519 291.257L250.823 290.26C252.798 288.88 254.769 287.435 256.682 285.965L257.423 286.93C255.497 288.411 253.51 289.867 251.519 291.257ZM66.0738 289.544C64.11 288.117 62.1483 286.623 60.2427 285.102L61.002 284.151C62.893 285.661 64.8399 287.144 66.7886 288.559L66.0738 289.544ZM263.125 282.337L262.341 281.407C264.182 279.853 266.014 278.234 267.788 276.595L268.613 277.488C266.827 279.14 264.98 280.772 263.125 282.337ZM54.6213 280.399C52.7923 278.797 50.9752 277.132 49.2208 275.447L50.0633 274.569C51.8046 276.241 53.6077 277.894 55.4227 279.484L54.6213 280.399ZM273.877 272.392L273.01 271.538C274.708 269.818 276.387 268.038 278 266.248L278.904 267.062C277.278 268.866 275.587 270.659 273.877 272.392ZM44.0527 270.256C42.3746 268.492 40.7174 266.668 39.127 264.835L40.046 264.038C41.6243 265.857 43.2688 267.666 44.9344 269.417L44.0527 270.256ZM283.683 261.508L282.744 260.736C284.277 258.869 285.787 256.944 287.232 255.011L288.206 255.74C286.75 257.687 285.229 259.628 283.683 261.508ZM34.454 259.198C32.9471 257.294 31.4633 255.328 30.0437 253.355L31.0311 252.644C32.44 254.602 33.9125 256.553 35.4081 258.443L34.454 259.198ZM292.461 249.77L291.455 249.087C292.812 247.089 294.141 245.033 295.405 242.974L296.442 243.611C295.168 245.685 293.828 247.757 292.461 249.77ZM25.9057 247.319C24.5799 245.286 23.2824 243.195 22.0488 241.101L23.0968 240.484C24.3212 242.561 25.6089 244.637 26.9246 246.653L25.9057 247.319ZM300.136 237.274L299.071 236.686C300.239 234.572 301.374 232.401 302.445 230.233L303.536 230.773C302.457 232.957 301.313 235.144 300.136 237.274ZM18.4809 234.716C17.3461 232.571 16.2459 230.371 15.2106 228.176L16.3109 227.657C17.3384 229.835 18.4301 232.019 19.5562 234.147L18.4809 234.716ZM306.634 224.121L305.519 223.632C306.489 221.418 307.42 219.15 308.287 216.893L309.423 217.329C308.549 219.604 307.61 221.889 306.634 224.121ZM12.2445 221.495C11.3118 219.257 10.4185 216.966 9.58977 214.687L10.7334 214.272C11.5557 216.533 12.4421 218.806 13.3674 221.027L12.2445 221.495ZM311.895 210.413L310.74 210.031C311.5 207.743 312.216 205.405 312.87 203.08L314.041 203.409C313.382 205.752 312.66 208.108 311.895 210.413V210.413ZM7.24601 207.747C6.5221 205.428 5.84184 203.06 5.22427 200.706L6.40119 200.397C7.01402 202.733 7.68923 205.084 8.4075 207.385L7.24601 207.747ZM315.861 196.313L314.676 196.037C315.22 193.692 315.718 191.297 316.156 188.92L317.353 189.14C316.912 191.536 316.41 193.949 315.861 196.313V196.313ZM3.52988 193.579C3.02251 191.202 2.56327 188.781 2.16522 186.382L3.36532 186.182C3.76069 188.564 4.21638 190.967 4.71988 193.325L3.52988 193.579ZM318.512 181.908L317.306 181.743C317.634 179.36 317.91 176.93 318.128 174.521L319.34 174.63C319.12 177.059 318.841 179.507 318.512 181.908V181.908ZM1.13206 179.13C0.845111 176.722 0.609552 174.269 0.431619 171.839L1.64537 171.75C1.82152 174.162 2.05561 176.596 2.34048 178.986L1.13206 179.13ZM319.835 167.322L318.62 167.268C318.728 164.857 318.783 162.411 318.783 160H320C320 162.43 319.945 164.894 319.835 167.322V167.322ZM0.0629685 164.523C0.0213791 163.031 0.000296258 161.509 0 160C0 159.064 0.00802372 158.129 0.0240652 157.196L1.24078 157.218C1.22474 158.143 1.21673 159.071 1.21673 160C1.21703 161.498 1.23812 163.009 1.27911 164.49L0.0629685 164.523ZM318.774 158.303C318.749 155.89 318.669 153.445 318.535 151.035L319.749 150.967C319.884 153.396 319.966 155.859 319.991 158.29L318.774 158.303ZM1.52953 149.954L0.315175 149.878C0.466968 147.447 0.676691 144.991 0.9378 142.58L2.14739 142.711C1.88806 145.104 1.68042 147.541 1.52953 149.954ZM317.966 143.788C317.723 141.39 317.42 138.963 317.068 136.574L318.271 136.397C318.626 138.803 318.931 141.248 319.177 143.665L317.966 143.788ZM3.09468 135.503L1.89222 135.318C2.26502 132.911 2.69814 130.484 3.17964 128.106L4.37201 128.347C3.89436 130.708 3.46453 133.115 3.09468 135.503ZM315.839 129.41C315.375 127.037 314.852 124.648 314.283 122.309L315.465 122.022C316.038 124.378 316.566 126.786 317.034 129.177L315.839 129.41ZM5.97671 121.257L4.79652 120.962C5.38736 118.605 6.04176 116.229 6.74162 113.899L7.90667 114.249C7.21245 116.561 6.56309 118.919 5.97671 121.257ZM312.401 115.287C311.722 112.971 310.981 110.64 310.197 108.36L311.347 107.964C312.138 110.262 312.885 112.611 313.569 114.945L312.401 115.287ZM10.1652 107.318L9.01735 106.914C9.82592 104.614 10.699 102.303 11.6121 100.045L12.7403 100.501C11.834 102.742 10.9675 105.035 10.1652 107.318H10.1652ZM307.676 101.541C306.788 99.3022 305.838 97.055 304.85 94.8619L305.96 94.3622C306.955 96.5723 307.913 98.8367 308.807 101.093L307.676 101.541ZM15.6262 93.8136L14.5205 93.3056C15.5368 91.0926 16.6183 88.8733 17.7353 86.7095L18.8165 87.2674C17.7079 89.4148 16.6347 91.6171 15.6262 93.8136ZM301.721 88.3166C300.632 86.1686 299.478 84.0162 298.292 81.9198L299.351 81.3204C300.547 83.433 301.709 85.6018 302.806 87.7664L301.721 88.3166ZM22.3042 80.8766L21.2497 80.2694C22.4635 78.1618 23.7435 76.0521 25.0544 73.9995L26.0798 74.6542C24.779 76.6914 23.5085 78.785 22.3042 80.8766ZM294.573 75.6841C293.287 73.6374 291.941 71.5984 290.572 69.6236L291.571 68.9303C292.951 70.9203 294.308 72.9747 295.603 75.0371L294.573 75.6841ZM30.1357 68.6127L29.1412 67.9117C30.5439 65.9223 32.0104 63.9395 33.5011 62.0182L34.4623 62.7638C32.9833 64.6709 31.5274 66.6385 30.1357 68.6127ZM286.296 63.7506C284.83 61.8301 283.303 59.921 281.757 58.0763L282.69 57.2947C284.247 59.1537 285.786 61.0771 287.264 63.0121L286.296 63.7506ZM39.0503 57.1201L38.1241 56.3311C39.6982 54.4822 41.3388 52.642 43.0002 50.8614L43.8896 51.6914C42.241 53.4586 40.6128 55.2852 39.0503 57.1201ZM276.964 52.6132C275.329 50.8341 273.634 49.0708 271.925 47.3729L272.783 46.5096C274.505 48.2209 276.213 49.9973 277.859 51.7897L276.964 52.6132ZM48.9695 46.4906L48.1188 45.6208C49.8586 43.9187 51.659 42.2359 53.4696 40.6193L54.2799 41.5271C52.4831 43.1312 50.6963 44.8013 48.9695 46.4906ZM266.653 42.366C264.862 40.7414 263.013 39.1391 261.157 37.6037L261.933 36.6662C263.802 38.2132 265.666 39.8277 267.471 41.4648L266.653 42.366ZM59.8096 36.8105L59.0414 35.8671C60.9232 34.3346 62.868 32.8232 64.8221 31.3748L65.5469 32.3521C63.6074 33.7898 61.6772 35.2896 59.8096 36.8105ZM255.449 33.0953C253.516 31.64 251.527 30.2121 249.538 28.8513L250.225 27.8472C252.23 29.2181 254.233 30.6568 256.18 32.1233L255.449 33.0953ZM71.4793 28.1612L70.8003 27.1518C72.8143 25.7967 74.8877 24.4697 76.9632 23.207L77.5953 24.2467C75.5359 25.4996 73.4782 26.8168 71.4793 28.1612ZM243.439 24.8815C241.383 23.6089 239.272 22.3684 237.164 21.1939L237.755 20.131C239.88 21.3145 242.007 22.5648 244.08 23.8465L243.439 24.8815ZM83.8825 20.6167L83.2985 19.5491C85.4292 18.3831 87.6141 17.2519 89.7921 16.1864L90.3267 17.2796C88.1654 18.3368 85.9972 19.4594 83.8825 20.6167L83.8825 20.6167ZM230.724 17.7976C228.559 16.719 226.341 15.677 224.132 14.7006L224.624 13.5878C226.85 14.5716 229.085 15.6217 231.267 16.7086L230.724 17.7976ZM96.9148 14.2422L96.4312 13.1259C98.6579 12.1608 100.936 11.2351 103.201 10.3746L103.633 11.5123C101.385 12.366 99.1246 13.2845 96.9148 14.2422ZM217.403 11.9094C215.15 11.0358 212.844 10.2023 210.549 9.43232L210.936 8.27857C213.249 9.05476 215.572 9.89454 217.842 10.7753L217.403 11.9094ZM110.487 9.08863L110.108 7.9325C112.42 7.17443 114.779 6.4606 117.119 5.81154L117.444 6.98371C115.122 7.62802 112.781 8.3362 110.487 9.08863ZM203.605 7.27958C201.284 6.61804 198.918 6.00195 196.57 5.44854L196.849 4.26449C199.215 4.82206 201.6 5.4429 203.939 6.10919L203.605 7.27958ZM124.492 5.20169L124.221 4.01556C126.592 3.47402 129.007 2.98062 131.398 2.5493L131.614 3.74642C129.241 4.17478 126.845 4.66432 124.492 5.20169ZM189.458 3.94426C187.089 3.49958 184.676 3.10392 182.285 2.76823L182.454 1.56338C184.863 1.90173 187.295 2.30037 189.683 2.74833L189.458 3.94426ZM138.796 2.6203L138.635 1.41426C141.044 1.09285 143.493 0.822531 145.916 0.611626L146.021 1.8236C143.618 2.03332 141.187 2.30126 138.796 2.6203ZM175.065 1.92222C172.668 1.69646 170.229 1.52239 167.814 1.40565L167.873 0.190115C170.306 0.308044 172.764 0.483323 175.179 0.710845L175.065 1.92222ZM153.276 1.35693L153.225 0.141398C155.462 0.0481204 157.741 0.000592516 160 0L160.551 0.000870869L160.547 1.2176L160 1.21671C157.758 1.21732 155.495 1.26455 153.276 1.35693Z" fill="#3F3D56"/>
</svg>
