<svg width="747" height="500" viewBox="0 0 747 500" fill="none" xmlns="http://www.w3.org/2000/svg" aria-hidden="true"><path opacity=".1" d="M433.755 82.432c-47.861-1.665-93.451-17.122-136.977-34.038-43.527-16.915-86.64-35.658-133.354-44.619-30.045-5.764-64.41-6.578-88.614 9.538C51.51 28.853 43.98 55.601 39.937 80.45c-3.047 18.691-4.837 38.359 3.512 55.859 5.79 12.15 16.077 22.361 23.184 34.038 24.75 40.49 7.261 90.422-19.56 129.957-12.572 18.551-27.177 36.258-36.879 55.985-9.702 19.727-14.198 42.362-5.709 62.504 8.423 19.979 28.486 34.955 50.212 45.5 44.14 21.421 96.135 27.548 146.872 31.018 112.277 7.689 225.147 4.359 337.72 1.029 41.663-1.236 83.504-2.486 124.487-8.931 22.762-3.582 46.255-9.257 62.783-22.976 20.972-17.411 26.171-46.898 12.121-68.726-23.583-36.621-88.74-45.715-105.246-85.021-9.066-21.629.252-45.722 13.43-65.789 28.278-43.036 75.672-80.795 78.172-129.987 1.715-33.794-21.076-67.625-56.305-83.615-36.923-16.82-88.141-14.688-115.369 13.053-28.057 28.584-77.352 39.55-119.606 38.085z" fill="#6C63FF"/><path d="M393.984 482.249c83.061 0 150.395-8.39 150.395-18.738 0-10.349-67.334-18.738-150.395-18.738-83.06 0-150.394 8.389-150.394 18.738 0 10.348 67.334 18.738 150.394 18.738z" fill="#3F3D56"/><path d="M613.008 300.52l-58.196 27.521 51.506-38.482a290.36 290.36 0 00-28.122-36.976l-252.387 62.681 227.977-86.895a290.664 290.664 0 00-33.106-25.213l-384.579 61.895a287.843 287.843 0 00-63.123 179.722h578.896a287.665 287.665 0 00-38.866-144.253zM489.152 185.076a287.436 287.436 0 00-126.74-29.257c-89.382 0-169.294 40.656-222.372 104.536 90.891-19.977 249.139-54.559 349.112-75.279z" fill="#F2F2F2"/><path d="M711.045 445.759H117.357v.987h593.688v-.987z" fill="#2F2E41"/><path d="M592.165 445.787l-45.814-69.034s69.381 24.572 61.507 69.034h-15.693z" fill="#3F3D56"/><path d="M594.226 445.787l45.813-69.034s-69.381 24.572-61.507 69.034h15.694z" fill="#5F6CAF"/><path d="M187.377 131.414c0-3.857-5.367-6.983-11.987-6.983-.131 0-.26.003-.39.005-1.997-6.273-11.438-11.024-22.784-11.024-9.653 0-17.927 3.439-21.411 8.329a29.666 29.666 0 00-7.889-1.035c-10.151 0-18.379 4.794-18.379 10.708 0 5.372 6.79 9.819 15.643 10.589 6.433 1.206 16.481 1.981 27.774 1.981 19.173 0 33.203-3.748 33.554-6.565 3.514-1.218 5.869-3.451 5.869-6.005zM478.304 134.373c0-3.857-5.431-6.984-12.13-6.984-.132 0-.263.003-.395.006-2.021-6.273-11.573-11.024-23.054-11.024-9.769 0-18.141 3.439-21.666 8.329a30.364 30.364 0 00-7.984-1.035c-10.271 0-18.598 4.794-18.598 10.708 0 5.372 6.872 9.819 15.83 10.589 6.509 1.205 16.677 1.981 28.105 1.981 19.401 0 33.597-3.748 33.953-6.565 3.555-1.218 5.939-3.451 5.939-6.005zM640.039 85.018c0-6.594-9.455-11.94-21.119-11.94-.231 0-.459.006-.688.01-3.519-10.725-20.151-18.847-40.142-18.847-17.008 0-31.586 5.88-37.724 14.24a53.781 53.781 0 00-13.901-1.77c-17.884 0-32.382 8.196-32.382 18.307 0 9.184 11.964 16.788 27.562 18.104 11.334 2.061 29.038 3.387 48.936 3.387 33.781 0 58.499-6.408 59.119-11.224 6.19-2.082 10.339-5.9 10.339-10.267z" fill="#F2F2F2"/><path d="M480.876 409.742c-3.53-9.637-22.958-10.543-31.388-8.086-5.991 1.752-18.619 3.726-25.365 4.718l-.438-.417c.875-.26.896-.9.788-1.85a29.362 29.362 0 01.054-3.752c4.134 1.29 7.815-1.763 7.815-1.763 4.857-2.169 3.551-11.454 4.479-13.992.697-1.899 1.447-13.082 1.781-18.657h.07l.038-1.871c.049-.808.07-1.28.07-1.28s.475-13.634 1.404-16.395c.863-2.538 1.565-15.326 1.673-17.354v-.266l-.071-1.182c.049-.863.071-1.823.065-2.831 0-4.637-.48-10.478-.539-11.422v-.494c.037-1.979-.211-11.893-8.603-15.641-3.092-1.388-6.811-3.042-10.41-4.653-.929-8.053-3.05-16.064-2.866-24.177 0-1.22.108-2.441.226-3.655 0 .352-.037.71-.043 1.084v2.365c.319-10.147 4.134-20.349 3.778-30.279a48.057 48.057 0 01-.194 2.923 31.7 31.7 0 00-1.036-9.973c-.324-1.145-.761-2.327-1.695-3.092a6.97 6.97 0 00-2.957-1.176 59.217 59.217 0 00-7.767-1.454 12.055 12.055 0 00-1.748-3.411c-5.472-7.55-13.578-14.643-23.163-16.27-4.809-.814-10.341-.136-13.611 3.319-.342.303-.662.629-.961.976-1.759 2.11-2.515 4.881-4.317 6.985-.119.141-.254.271-.383.407-3.53 3.173-9.029 3.834-12.953 6.682a15.62 15.62 0 00-1.937 1.697 32.955 32.955 0 00-4.231 5.169c-1.765 2.494-3.578 5.092-4.14 8.07-1.128 5.965 2.915 11.622 3.665 17.626 1.673 13.433-13.12 25.354-10.319 38.608a17.7 17.7 0 004.76 8.586c-5.769 5.249-10.68 10.342-10.68 10.342v.304h-.912l.091 1.084h-.091l.502 5.885-.502 8.569v.808h.032c.167 3.14.831 14.431 1.619 16.812.928 2.761 1.398 16.395 1.398 16.395s1.025 19.269 1.964 21.818c.939 2.549-.394 11.807 4.48 13.993a10.22 10.22 0 004.895 2.039c-.249 2.028-.092 3.498.712 3.959.344.203.734.315 1.133.325a12.21 12.21 0 00-.879 1.546 22.742 22.742 0 01-5.656-1.34c-5.235-2.169-22.607-7.05-27.654-3.617-5.046 3.433-17.188 6.546-11.581 20.365 5.607 13.818 8.219 14.165 8.219 14.165a20.036 20.036 0 014.485 4.529c1.684 2.544 17.372 8.363 21.296 8.363a38.191 38.191 0 014.992.249s-4.258 3.753-3.691 5.933c.566 2.181-1.296 19.633-1.296 19.633s4.318 4.371 6.163-1.361l.065.087c.346.471 2.213 2.603 5.726-.087a32.06 32.06 0 014.566-2.907l17.011-2.419a48.036 48.036 0 015.326-.038c2.699.222 5.349-1.383 7.016-2.625 3.524 1.345 7.486 2.815 9.369 3.352 3.821 1.084 21.382 5.819 25.489 4.338a5.704 5.704 0 002.213-1.583l3.918.125-1.835.368s3.573.06 8.43.125l-.205.119 6.093-.054c8.916.082 18.932.109 20.249-.19 2.061-.461 12.774-.135 15.931 0h.88s11.77-2.359 6.913-14.361c-3.734-9.219-15.213-11.899-20.308-12.636a93.009 93.009 0 013.492-.64c3.556-.542 10.464-3.796 11.026-4.908.561-1.112 6.352-4.339 7.847-6.177 1.494-1.839 5.763-14.871 2.218-24.509zm-97.494 26.971l-.577.19-.389.13-.745.737c-.593-.401-1.23-.824-1.894-1.258 1.171.071 2.375.141 3.605.201z" fill="url(#paint0_linear)"/><path d="M418.146 380.443s8.096 21.997 12.7 19.797c4.604-2.2 3.355-11.548 4.234-14.111.878-2.562 1.852-21.996 1.852-21.996s.444-13.748 1.323-16.53c.815-2.557 1.476-15.453 1.587-17.482v-.269l-.873-15.947-4.942-1.282-11.462 4.4-1.588 9.419-.619 3.679-.265 1.568-1.947 48.754z" fill="#BE6F72"/><path opacity=".1" d="M420.118 375.74s7.724 7.06 10.051 7.68c2.328.62 3.756 6.126 3.756 6.126" fill="#000"/><path d="M352.071 380.892s-8.096 21.502-12.7 19.351c-4.604-2.15-3.355-11.288-4.234-13.793-.878-2.505-1.852-21.502-1.852-21.502s-.444-13.439-1.323-16.159c-.815-2.499-1.476-15.105-1.587-17.089v-.263l.878-15.589 4.943-1.252 11.462 4.3 1.587 9.208.619 3.596.265 1.532 1.942 47.66z" fill="#BE6F72"/><path d="M407.298 264.3h-19.724v30.572h19.724V264.3z" fill="#3E373A"/><path opacity=".1" d="M407.298 264.3h-19.724v30.572h19.724V264.3z" fill="#000"/><path d="M350.616 402.147s-6.271 7.067-3.944 8.35c2.326 1.283 17.379 25.336 17.379 25.336s49.441 6.24 58.765-3.123c9.324-9.363 9.136-26.09 9.136-26.09s-7.491 1.652-8.308.754c-.817-.898-5.304-5.227-5.304-5.227s-63.425-3.943-67.724 0z" fill="#4B4B5B"/><path opacity=".02" d="M350.616 402.147s-6.271 7.067-3.944 8.35c2.326 1.283 17.379 25.336 17.379 25.336s49.441 6.24 58.765-3.123c9.324-9.363 9.136-26.09 9.136-26.09s-7.491 1.652-8.308.754c-.817-.898-5.304-5.227-5.304-5.227s-63.425-3.943-67.724 0z" fill="#000"/><path d="M437.855 313.794L421.648 326.7l-4.899.355-1.799.129-30.214 2.205-31.332-2.281-4.662-.338-5.942-.431-12.425-11.83s8.794-9.379 16.498-15.708c3.036-2.5 5.904-4.522 7.995-5.318l.356-.124a8.884 8.884 0 003.425-2.377c6.083-6.243 11.707-21.65 11.707-21.65s26.832-13.798 23.591 4.302c-3.242 18.101 12.062 13.627 12.062 13.627l5.046 2.291 1.993.909 5.084 2.317 11.468 5.238c9 4.125 8.255 15.778 8.255 15.778z" fill="#BE6F72"/><path opacity=".1" d="M385.109 284.024c13.344 0 24.161-10.818 24.161-24.162S398.453 235.7 385.109 235.7c-13.345 0-24.162 10.818-24.162 24.162s10.817 24.162 24.162 24.162zM439.319 332.347H330.375v-.263l.901-15.552s8.837-9.353 16.578-15.665l68.399-2.681 3.181-3.314 11.525 5.223c9.049 4.108 8.322 15.729 8.322 15.729s1.237 13.466.038 16.523z" fill="#000"/><path d="M439.319 332.347H330.375v-.276l.901-16.371s8.837-9.845 16.578-16.489l68.399-2.823 3.181-3.489 11.525 5.499c9.049 4.324 8.322 16.557 8.322 16.557s1.237 14.174.038 17.392z" fill="#E7C7CA"/><path opacity=".1" d="M367.669 285.976s17.026 22.674 39.703-.466c22.678-23.141 2.511 51.615 2.511 51.615l-48.936 6.07 6.722-57.219z" fill="#000"/><path d="M367.669 288.701s17.026 21.594 39.703-.445c22.678-22.038 2.511 49.158 2.511 49.158l-48.936 5.781 6.722-54.494z" fill="#E7C7CA"/><path opacity=".1" d="M414.161 290.855l1.842 28.308 1.973 9.419 1.506 7.203s3.848 55.408 2.748 58.178c-1.099 2.771.55 4.987.781 6.461.231 1.474-.231 5.175-.05 6.837.182 1.662 0 2.399-4.21 1.806s-10.081-1.623-10.081-1.623-14.84 1.108-19.968-.737c-5.128-1.845-14.841-1.851-14.841-1.851s-14.659.372-19.419-.183c-4.76-.554-7.332 5.912-10.443 4.062-3.111-1.851 3.661-19.759 5.859-24.934 2.199-5.175-2.929-18.284-2.929-18.284l6.595-36.885 1.468-8.361v-26.285l.363-.128a9.037 9.037 0 003.484-2.449l1.649 26.452 51.667 1.85v-29.77" fill="#000"/><path d="M414.161 290.832l1.842 27.606 1.973 9.186 1.506 7.025s3.848 54.033 2.748 56.735c-1.099 2.702.55 4.863.781 6.3.231 1.438-.231 5.047-.05 6.668.182 1.621 0 2.34-4.21 1.762-4.21-.578-10.081-1.583-10.081-1.583s-14.84 1.08-19.968-.719-14.841-1.805-14.841-1.805-14.659.362-19.419-.178-7.332 5.765-10.443 3.961c-3.111-1.805 3.661-19.269 5.859-24.316 2.199-5.046-2.929-17.831-2.929-17.831l6.595-35.97 1.468-8.154v-25.634l.363-.124a9.053 9.053 0 003.484-2.388l1.649 25.796 51.667 1.804v-29.032" fill="#E7C7CA"/><path opacity=".1" d="M419.098 232.892c-.303-1.144-.723-2.332-1.595-3.098a6.431 6.431 0 00-2.807-1.182 53.945 53.945 0 00-7.378-1.456 12.344 12.344 0 00-1.595-3.41c-5.21-7.575-12.918-14.718-21.988-16.333-4.747-.849-10.249-.088-13.29 3.766-1.669 2.118-2.387 4.926-4.072 7.006-3.248 4.039-9.112 4.537-13.205 7.663-2.185 1.642-3.769 4.023-5.316 6.333-1.675 2.501-3.397 5.106-3.929 8.095-1.063 5.972 2.77 11.664 3.477 17.691 1.595 13.481-12.44 25.441-9.787 38.741 1.547 7.756 8.506 13.219 15.704 15.988 2.535.98 5.433 1.955 6.618 4.461.532 1.095.622 2.359 1.122 3.465 1.68 3.689 7.203 3.832 10.17 1.144 2.966-2.687 3.902-7.033 4.252-11.089 1.425-17.713-5.465-35.212-4.662-52.968.239-5.369 1.707-11.461 6.38-13.892 6.289-3.284 13.853 2.19 20.775 1.144a43.612 43.612 0 011.988 25.896c-1.1 4.723-3.003 9.305-3.142 14.176-.207 7.417 3.679 14.193 7.039 20.75a11.248 11.248 0 011.419 4.002 9.9 9.9 0 01-.76 4.187c-1.898 5.26-5.173 10.142-5.545 15.742a2.605 2.605 0 00.399 1.872 2.26 2.26 0 001.372.635c5.741 1.012 10.706-4.226 13.508-9.486a45.478 45.478 0 005.327-18.895c.579-11.144-3.302-22.107-3.063-33.262.277-12.683 5.843-25.452 2.584-37.686z" fill="#000"/><path d="M422.02 232.892c-.314-1.144-.749-2.332-1.652-3.098a6.79 6.79 0 00-2.907-1.182 57.628 57.628 0 00-7.642-1.456 12.137 12.137 0 00-1.652-3.41c-5.396-7.575-13.379-14.718-22.772-16.333-4.917-.849-10.616-.088-13.765 3.766-1.729 2.118-2.473 4.926-4.218 7.006-3.364 4.039-9.437 4.537-13.677 7.663-2.263 1.642-3.904 4.023-5.506 6.333-1.734 2.501-3.518 5.106-4.069 8.095-1.101 5.972 2.869 11.664 3.601 17.691 1.652 13.481-12.884 25.441-10.136 38.741 1.602 7.756 8.809 13.219 16.264 15.988 2.627.98 5.627 1.955 6.855 4.461.551 1.095.645 2.359 1.162 3.465 1.74 3.689 7.461 3.832 10.533 1.144 3.072-2.687 4.041-7.033 4.405-11.089 1.475-17.713-5.66-35.212-4.829-52.968.248-5.369 1.767-11.461 6.607-13.892 6.514-3.284 14.349 2.19 21.518 1.144a42.21 42.21 0 012.059 25.896c-1.14 4.723-3.111 9.305-3.254 14.176-.215 7.417 3.81 14.193 7.29 20.75a11.018 11.018 0 011.47 4.002 9.58 9.58 0 01-.788 4.187c-1.965 5.26-5.357 10.142-5.742 15.742a2.533 2.533 0 00.413 1.872c.388.365.888.588 1.42.635 5.947 1.012 11.089-4.226 13.991-9.486a44.278 44.278 0 005.517-18.895c.6-11.144-3.419-22.107-3.172-33.262.287-12.683 6.051-25.452 2.676-37.686z" fill="#3E373A"/><path d="M409.27 471.748l19.724.639-2.829-14.793-15.11 1.453-1.785 12.701z" fill="#C3C7D9"/><path d="M473.85 435.932c-1.436 1.803-6.989 5.052-7.527 6.135-.537 1.083-7.166 4.332-10.574 4.874-3.409.541-14.155 2.891-16.128 4.153-1.414.91-12.763 3.79-20.22 5.388a56.97 56.97 0 01-6.123 1.11c-3.226.178-38.525-11.913-38.525-11.913l6.806-7.04.377-.13c1.924-.655 10.816-3.682 15.752-5.122 5.558-1.625 12.01-8.301 12.01-8.301s9.494-3.249 10.752-3.612c1.258-.363-3.226-12.633-3.226-12.633s20.606-2.881 28.67-5.323c8.065-2.442 26.703-1.538 30.106 8.03 3.403 9.569-.693 22.581-2.15 24.384z" fill="#4B4B5B"/><path d="M380.671 465.009s-4.105 4.359-8.215 3.999c-4.11-.359-18.481 1.09-18.481 1.09a28.674 28.674 0 00-7.24 4.266c-3.359 2.692-5.144.545-5.476.087l-.059-.087c-1.79 5.727-5.894 1.362-5.894 1.362s1.784-17.435 1.237-19.614c-.546-2.18 3.532-5.923 3.532-5.923l4.822-1.248 12.218-3.182 17.506 6.174 6.05 13.076z" fill="#E7C7CA"/><path opacity=".1" d="M343.195 448.718l-2.982 25.711-.048-.088c-1.476 5.771-4.859 1.373-4.859 1.373s1.471-17.573 1.02-19.769c-.45-2.197 2.911-5.969 2.911-5.969l3.958-1.258zM403.353 382.643s3.336 4.438 5.917 0h-5.917zM403.353 388.967s4.973 2.337 5.917-2.379l-5.917 2.379zM400.395 397.436s12.64-1.691 15.779-3.945l-15.779 3.945zM363.905 393.491s6.221 4.125 10.848 3.939l-10.848-3.939zM420.072 456.444c-2.05.498-4.125.881-6.216 1.148-3.274.184-39.103-12.312-39.103-12.312l6.909-7.276.382-.134a65.452 65.452 0 012.624 1.981c3.007 2.429 5.91-.744 7.001-.744 1.092 0 10.548 8.019 10.548 8.019s8.731 2.054 10.188 3.918c1.457 1.863 6.548 1.494 7.454 2.798.273.403.305 1.394.213 2.602z" fill="#000"/><path d="M353.113 408.724s-8.793.5-13.864-1.611c-5.071-2.112-21.919-6.984-26.81-3.562-4.891 3.422-16.669 6.446-11.234 20.059 5.435 13.612 7.973 13.966 7.973 13.966a19.49 19.49 0 014.348 4.459c1.63 2.509 16.848 8.235 20.652 8.235 3.805 0 10.506 0 19.924 6.446 9.419 6.446 17.935 7.166 17.935 7.166s11.957 4.835 15.68 5.909c3.722 1.075 20.734 5.727 24.723 4.298 3.989-1.429 6.521-10.389 6.521-10.389s1.81-8.058.903-9.31c-.908-1.251-5.979-.897-7.424-2.686-1.446-1.789-10.147-3.76-10.147-3.76s-9.397-7.703-10.484-7.703c-1.087 0-3.978 3.04-6.973.714a159.334 159.334 0 00-18.755-11.818c-6.881-3.583-12.968-20.413-12.968-20.413z" fill="#4B4B5B"/><path opacity=".1" d="M337.278 413.415a9.93 9.93 0 018.506 2.241c4.151 3.451 18.121 10.38 18.121 10.38M444.773 413.215s-20.776 2.928-24.655 6.903l24.655-6.903z" fill="#000"/><path d="M465.596 472.152h-.847c-3.04-.106-13.343-.422-15.327 0-2.335.528-33.248 0-33.248 0l6.043-1.23s-2.243-7.696-.819-8.335c0 0-8.087-5.215-1.99-8.736 6.098-3.52 12.67-2.037 12.67-2.037l15.306-5.078 2.938-.977s17.253.882 21.921 12.495c4.669 11.612-6.647 13.898-6.647 13.898z" fill="#E7C7CA"/><path opacity=".1" d="M465.995 472.387h-.803c4.762-4.094 15.533-16.558-16.474-25.641l2.787-.987s16.367.891 20.796 12.618c4.43 11.728-6.306 14.01-6.306 14.01z" fill="#000"/><path d="M434.911 459.566a.985.985 0 10.001-1.97.985.985 0 00-.001 1.97z" fill="#4B4B5B"/><g opacity=".1" fill="#000"><path opacity=".1" d="M402.387 259.587a42.122 42.122 0 00-3.102-17.411c-7.024 1.051-14.719-4.382-21.117-1.132-4.733 2.405-6.219 8.434-6.484 13.749a64.218 64.218 0 00-.049 4.209c0-.498 0-1.002.049-1.501.249-5.314 1.735-11.343 6.484-13.749 6.398-3.25 14.082 2.167 21.117 1.133a42.001 42.001 0 013.102 14.702zM347.952 258.596a18.082 18.082 0 00-.071-3.543c-.572-4.767-3.172-9.323-3.642-13.971-.605 5.607 2.956 10.991 3.642 16.679.071.293.071.553.071.835zM376.423 307.21c-.335 4.019-1.281 8.315-4.323 10.981-3.042 2.665-8.646 2.519-10.337-1.133-.54-1.083-.621-2.345-1.146-3.429-1.199-2.481-4.149-3.445-6.727-4.415-7.322-2.746-14.384-8.126-15.957-15.824a16.693 16.693 0 01-.286-2.112 17.105 17.105 0 00.286 4.821c1.573 7.676 8.646 13.077 15.957 15.824 2.578.969 5.528 1.934 6.727 4.415.541 1.083.633 2.335 1.146 3.429 1.702 3.651 7.316 3.792 10.337 1.132s3.961-6.961 4.323-10.981c.164-2.115.22-4.238.167-6.359 0 1.229-.07 2.443-.167 3.651zM418.16 267.529v2.345c.302-10.076 3.988-20.206 3.625-30.071-.281 9.123-3.42 18.451-3.625 27.726zM406.564 308.288a6.979 6.979 0 00.124-1.956 10.86 10.86 0 00-1.443-3.96c-3.123-5.959-6.684-12.059-7.105-18.673 0 .282-.038.542-.044.845-.216 7.335 3.734 14.047 7.149 20.537a13.013 13.013 0 011.319 3.207zM421.267 300.449a44.152 44.152 0 01-5.452 18.7c-2.853 5.206-7.895 10.391-13.736 9.388a2.298 2.298 0 01-1.394-.633 1.363 1.363 0 01-.254-.423c-.065.423-.119.85-.151 1.284a2.498 2.498 0 00.405 1.847c.379.365.871.589 1.394.634 5.841 1.002 10.883-4.182 13.736-9.388a44.156 44.156 0 005.452-18.7c.065-1.268.07-2.53.032-3.792-.01.363-.01.72-.032 1.083z"/></g><path opacity=".1" d="M423.077 462.584s13.074 4.114 21.696-4.99M425.049 472.387s11.711-4.342 26.628-.143M350.099 472.387s4.836-11.29 17.751-2.681" stroke="#000" stroke-miterlimit="10"/><path opacity=".1" d="M335.306 314.207l9.556-8.554s37.052-2.405 38.585 10.067c0 0 13.136-14.787 40.762-11.494l11.688 9.217-32.306 14.038-31.395 10.783-23.123-10.248-13.767-13.809z" fill="#000"/><path d="M335.306 316.478l9.556-8.798s37.052-2.474 38.585 10.354c0 0 13.136-15.209 40.762-11.822l11.688 9.48-32.306 14.44-31.395 11.091-23.123-10.541-13.767-14.204z" fill="#D5D6DB"/><path opacity=".1" d="M330.375 316.568l4.165 50.985 44.158 2.269-1.915-50.766-.037-.855-46.371-1.633z" fill="#000"/><path d="M330.375 316.568l4.165 50.985 44.158 2.269-1.915-50.766-.037-.855-46.371-1.633z" fill="#5F6CAF"/><path opacity=".1" d="M437.87 316.568l-46.351 6.868v50.331l45.295-6.467 1.056-50.732z" fill="#000"/><path d="M437.87 314.596l-46.351 6.868v50.331l45.295-6.467 1.056-50.732z" fill="#5F6CAF"/><path opacity=".3" d="M427.022 327.416l-26.627 2.668.581 8.18 26.028-2.564.018-8.284z" fill="#fff"/><path d="M338.344 393.243l2.498 7.002s3.713 3.316 7.775 1.658c4.063-1.658 7.606-2.482 9.372-4.095 1.766-1.614 4.243-9.722 4.243-9.722s2.476-8.842 4.948-11.053c2.471-2.21 9.016-32.667 0-29.688-9.016 2.979-15.911 30.611-15.911 30.611s-1.591 2.023-3.888 2.211c-2.296.188-6.894-.37-7.78 1.658-.886 2.028-3.909 7.367-1.257 11.418z" fill="#BE6F72"/><path opacity=".1" d="M391.519 321.975a13.73 13.73 0 01-6.79-.083 14.37 14.37 0 01-6.031-3.352l1.843 51.161s4.34 5.047 10.978 3.895v-51.621z" fill="#000"/><path d="M391.519 321.852a14.216 14.216 0 01-6.79-.08 14.536 14.536 0 01-6.031-3.232l1.843 49.334s4.34 4.867 10.978 3.756v-49.778z" fill="#5F6CAF"/><g opacity=".1" filter="url(#filter0_d)"><path d="M391.519 321.852a14.216 14.216 0 01-6.79-.08 14.536 14.536 0 01-6.031-3.232l1.843 49.334s4.34 4.867 10.978 3.756v-49.778z" fill="#012AFF"/></g><path opacity=".1" d="M391.519 316.568s19.556-7.91 24.655-6.796l-24.655 6.796zM371.795 312.623s-18.591-3.857-21.696-2.763l21.696 2.763zM405.325 316.568s10.865-3.021 14.793-1.585l-14.793 1.585zM398.422 432.939a41.98 41.98 0 016.361-4.415c3.324-1.789 9.418-6.433 9.418-6.433M350.099 377.712s-7.177 6.051-9.333 6.583c-2.157.532-3.488 5.251-3.488 5.251" fill="#000"/><path d="M432.824 393.226l-2.544 7.019s-3.82 3.316-8.006 1.658-7.821-2.482-9.643-4.095c-1.823-1.614-4.367-9.722-4.367-9.722s-2.543-8.842-5.092-11.053c-2.548-2.21-9.277-32.667 0-29.688 9.278 2.979 16.373 30.611 16.373 30.611s1.638 2.023 4.001 2.211c2.363.188 7.095-.37 8.006 1.658.911 2.028 4.001 7.367 1.272 11.401z" fill="#BE6F72"/><path opacity=".1" d="M428.994 380.671s4.952 2.695 4.931 5.917l-4.931-5.917z" fill="#000"/><path d="M385.108 284.024c13.345 0 24.162-10.818 24.162-24.162S398.453 235.7 385.108 235.7c-13.344 0-24.161 10.818-24.161 24.162s10.817 24.162 24.161 24.162z" fill="#BE6F72"/><path d="M368.876 253.37c2.91-.479 5.46-2.255 8.24-3.275 6.222-2.294 13.104-.722 19.402 1.347 2.415.795 4.869 1.691 7.402 1.691 2.534 0 5.224-1.088 6.518-3.382 1.191-2.108.96-4.847-.043-7.062-1.004-2.216-2.685-3.997-4.381-5.677-5.583-5.535-12.508-10.709-20.169-10.145-3.081.231-6.028 1.386-8.863 2.666a96.095 96.095 0 00-10.404 5.501c-2.582 1.573-7.365 3.675-8.852 6.55-3.382 6.476 5.889 12.654 11.15 11.786z" fill="#3E373A"/><path opacity=".1" d="M410.435 246.963c-1.294 2.746-3.983 4.049-6.517 4.049-2.534 0-4.987-1.033-7.407-1.984-6.297-2.477-13.173-4.367-19.4-1.613-2.775 1.221-5.33 3.374-8.239 3.914-4.241.837-11.069-3.806-11.809-9.712-.832 6.824 7.085 12.668 11.809 11.737 2.909-.574 5.464-2.7 8.239-3.915 6.227-2.753 13.103-.864 19.4 1.613 2.42.952 4.868 2.025 7.407 1.985 2.539-.041 5.223-1.296 6.517-4.05.67-1.498.934-3.23.751-4.933a8.664 8.664 0 01-.751 2.909z" fill="#000"/><defs><linearGradient id="paint0_linear" x1="390.036" y1="477.334" x2="390.036" y2="205.124" gradientUnits="userSpaceOnUse"><stop stop-color="gray" stop-opacity=".25"/><stop offset=".54" stop-color="gray" stop-opacity=".12"/><stop offset="1" stop-color="gray" stop-opacity=".1"/></linearGradient><filter id="filter0_d" x="374.698" y="318.54" width="20.82" height="61.254" filterUnits="userSpaceOnUse" color-interpolation-filters="sRGB"><feFlood flood-opacity="0" result="BackgroundImageFix"/><feColorMatrix in="SourceAlpha" values="0 0 0 0 0 0 0 0 0 0 0 0 0 0 0 0 0 0 127 0"/><feOffset dy="4"/><feGaussianBlur stdDeviation="2"/><feColorMatrix values="0 0 0 0 0 0 0 0 0 0 0 0 0 0 0 0 0 0 0.25 0"/><feBlend in2="BackgroundImageFix" result="effect1_dropShadow"/><feBlend in="SourceGraphic" in2="effect1_dropShadow" result="shape"/></filter></defs></svg>