<svg width="170" height="34" viewBox="0 0 170 34" fill="none" xmlns="http://www.w3.org/2000/svg">
<path d="M12.6294 28.2765C19.6044 28.2765 25.2588 22.6222 25.2588 15.6472C25.2588 8.67213 19.6044 3.01776 12.6294 3.01776C5.65437 3.01776 0 8.67213 0 15.6472C0 22.6222 5.65437 28.2765 12.6294 28.2765Z" fill="#4F3961"/>
<path d="M48.1497 28.2765C55.1247 28.2765 60.779 22.6222 60.779 15.6472C60.779 8.67213 55.1247 3.01776 48.1497 3.01776C41.1746 3.01776 35.5203 8.67213 35.5203 15.6472C35.5203 22.6222 41.1746 28.2765 48.1497 28.2765Z" fill="#B52B65"/>
<path d="M83.6699 28.2765C90.6449 28.2765 96.2993 22.6222 96.2993 15.6472C96.2993 8.67213 90.6449 3.01776 83.6699 3.01776C76.6949 3.01776 71.0405 8.67213 71.0405 15.6472C71.0405 22.6222 76.6949 28.2765 83.6699 28.2765Z" fill="#F3D4D4"/>
<path d="M104.102 15V13.4619L105.464 13.1982V4.01367L104.102 3.75V2.20312H105.464H108.03H109.401V3.75L108.03 4.01367V13.0312H111.643L111.766 11.4229H113.726V15H104.102ZM119.263 15.1846C117.892 15.1846 116.796 14.7451 115.976 13.8662C115.155 12.9873 114.745 11.8711 114.745 10.5176V10.166C114.745 8.75391 115.132 7.59082 115.905 6.67676C116.685 5.7627 117.728 5.30859 119.034 5.31445C120.317 5.31445 121.313 5.70117 122.022 6.47461C122.731 7.24805 123.086 8.29395 123.086 9.6123V11.0098H117.408L117.391 11.0625C117.438 11.6895 117.646 12.2051 118.015 12.6094C118.39 13.0137 118.896 13.2158 119.535 13.2158C120.104 13.2158 120.575 13.1602 120.95 13.0488C121.325 12.9316 121.735 12.75 122.181 12.5039L122.875 14.0859C122.482 14.3965 121.973 14.6572 121.346 14.8682C120.725 15.0791 120.03 15.1846 119.263 15.1846ZM119.034 7.29199C118.56 7.29199 118.185 7.47363 117.909 7.83691C117.634 8.2002 117.464 8.67773 117.399 9.26953L117.426 9.31348H120.572V9.08496C120.572 8.54004 120.443 8.10645 120.186 7.78418C119.934 7.45605 119.55 7.29199 119.034 7.29199ZM130.363 15C130.293 14.8418 130.231 14.6807 130.179 14.5166C130.126 14.3467 130.085 14.1768 130.056 14.0068C129.751 14.3584 129.379 14.6426 128.939 14.8594C128.506 15.0762 128.008 15.1846 127.445 15.1846C126.514 15.1846 125.772 14.9326 125.222 14.4287C124.677 13.9189 124.404 13.2275 124.404 12.3545C124.404 11.4639 124.762 10.7754 125.477 10.2891C126.191 9.80273 127.24 9.55957 128.623 9.55957H129.933V8.62793C129.933 8.1709 129.801 7.81641 129.537 7.56445C129.273 7.3125 128.884 7.18652 128.368 7.18652C128.075 7.18652 127.814 7.22168 127.586 7.29199C127.357 7.35645 127.173 7.43555 127.032 7.5293L126.865 8.54883H124.932L124.94 6.43945C125.409 6.12305 125.945 5.85645 126.549 5.63965C127.158 5.42285 127.82 5.31445 128.535 5.31445C129.713 5.31445 130.668 5.60449 131.4 6.18457C132.139 6.75879 132.508 7.5791 132.508 8.64551V12.5742C132.508 12.7207 132.508 12.8584 132.508 12.9873C132.514 13.1162 132.525 13.2393 132.543 13.3564L133.325 13.4619V15H130.363ZM128.14 13.2861C128.526 13.2861 128.878 13.2041 129.194 13.04C129.511 12.8701 129.757 12.6592 129.933 12.4072V10.957H128.623C128.078 10.957 127.665 11.0859 127.384 11.3438C127.103 11.5957 126.962 11.9004 126.962 12.2578C126.962 12.5801 127.064 12.832 127.27 13.0137C127.48 13.1953 127.771 13.2861 128.14 13.2861ZM134.397 13.4619L135.628 13.1982V7.30078L134.266 7.03711V5.49023H138.019L138.133 6.87891C138.355 6.38672 138.643 6.00293 138.994 5.72754C139.346 5.45215 139.753 5.31445 140.216 5.31445C140.351 5.31445 140.491 5.32617 140.638 5.34961C140.79 5.36719 140.916 5.39063 141.016 5.41992L140.743 7.75781L139.688 7.73145C139.313 7.73145 139.003 7.80469 138.757 7.95117C138.511 8.09766 138.323 8.30566 138.194 8.5752V13.1982L139.425 13.4619V15H134.397V13.4619ZM141.64 13.4619L142.87 13.1982V7.30078L141.508 7.03711V5.49023H145.261L145.375 6.85254C145.691 6.36621 146.081 5.98828 146.544 5.71875C147.007 5.44922 147.525 5.31445 148.1 5.31445C149.061 5.31445 149.811 5.61621 150.35 6.21973C150.889 6.82324 151.158 7.76953 151.158 9.05859V13.1982L152.389 13.4619V15H147.484V13.4619L148.583 13.1982V9.06738C148.583 8.42871 148.454 7.97754 148.196 7.71387C147.938 7.44434 147.549 7.30957 147.027 7.30957C146.688 7.30957 146.383 7.37988 146.113 7.52051C145.844 7.65527 145.618 7.84863 145.437 8.10059V13.1982L146.474 13.4619V15H141.64V13.4619ZM112.363 24.375H108.03V28.0312H112.161L112.275 26.502H114.227V30H104.102V28.4619L105.464 28.1982V19.0137L104.102 18.75V17.2031H105.464H114.209V20.71H112.24L112.126 19.1807H108.03V22.3975H112.363V24.375ZM115.519 28.4619L116.749 28.1982V22.3008L115.387 22.0371V20.4902H119.14L119.254 21.8525C119.57 21.3662 119.96 20.9883 120.423 20.7188C120.886 20.4492 121.404 20.3145 121.979 20.3145C122.939 20.3145 123.689 20.6162 124.229 21.2197C124.768 21.8232 125.037 22.7695 125.037 24.0586V28.1982L126.268 28.4619V30H121.363V28.4619L122.462 28.1982V24.0674C122.462 23.4287 122.333 22.9775 122.075 22.7139C121.817 22.4443 121.428 22.3096 120.906 22.3096C120.566 22.3096 120.262 22.3799 119.992 22.5205C119.723 22.6553 119.497 22.8486 119.315 23.1006V28.1982L120.353 28.4619V30H115.519V28.4619ZM127.155 25.3242C127.155 23.8242 127.48 22.6143 128.131 21.6943C128.787 20.7744 129.704 20.3145 130.882 20.3145C131.415 20.3145 131.884 20.4346 132.288 20.6748C132.692 20.9092 133.038 21.2461 133.325 21.6855L133.51 20.4902H135.742V29.7188C135.742 30.9727 135.347 31.9717 134.556 32.7158C133.771 33.4658 132.689 33.8408 131.312 33.8408C130.832 33.8408 130.322 33.7734 129.783 33.6387C129.244 33.5098 128.746 33.3311 128.289 33.1025L128.764 31.3008C129.174 31.4766 129.584 31.6143 129.994 31.7139C130.404 31.8193 130.838 31.8721 131.295 31.8721C131.922 31.8721 132.391 31.6816 132.701 31.3008C133.012 30.9199 133.167 30.3896 133.167 29.71V29.0859C132.886 29.4434 132.555 29.7158 132.174 29.9033C131.793 30.0908 131.356 30.1846 130.864 30.1846C129.698 30.1846 128.787 29.7568 128.131 28.9014C127.48 28.04 127.155 26.9092 127.155 25.5088V25.3242ZM129.722 25.5088C129.722 26.3408 129.862 26.9971 130.144 27.4775C130.425 27.9521 130.882 28.1895 131.515 28.1895C131.907 28.1895 132.238 28.1191 132.508 27.9785C132.783 27.832 133.003 27.6211 133.167 27.3457V23.2148C133.003 22.9277 132.783 22.7051 132.508 22.5469C132.238 22.3887 131.913 22.3096 131.532 22.3096C130.905 22.3096 130.445 22.5879 130.152 23.1445C129.865 23.7012 129.722 24.4277 129.722 25.3242V25.5088ZM137.008 17.8359V16.2891H140.945V28.1982L142.185 28.4619V30H137.14V28.4619L138.379 28.1982V18.0996L137.008 17.8359ZM142.949 28.4619L144.188 28.1982V22.3008L142.817 22.0371V20.4902H146.755V28.1982L147.985 28.4619V30H142.949V28.4619ZM146.755 18.2139H144.188V16.2891H146.755V18.2139ZM156.59 23.7598H154.867L154.595 22.5732C154.419 22.4326 154.196 22.3154 153.927 22.2217C153.663 22.1279 153.37 22.0811 153.048 22.0811C152.597 22.0811 152.239 22.1836 151.976 22.3887C151.712 22.5879 151.58 22.8398 151.58 23.1445C151.58 23.4316 151.706 23.6719 151.958 23.8652C152.21 24.0527 152.714 24.2197 153.47 24.3662C154.647 24.6006 155.521 24.9463 156.089 25.4033C156.657 25.8545 156.941 26.4785 156.941 27.2754C156.941 28.1309 156.572 28.8311 155.834 29.376C155.102 29.915 154.135 30.1846 152.934 30.1846C152.201 30.1846 151.527 30.0791 150.912 29.8682C150.303 29.6514 149.761 29.3438 149.286 28.9453L149.26 26.8096H151.053L151.404 28.0488C151.557 28.1777 151.765 28.2744 152.028 28.3389C152.292 28.3975 152.567 28.4268 152.854 28.4268C153.376 28.4268 153.771 28.333 154.041 28.1455C154.316 27.958 154.454 27.7031 154.454 27.3809C154.454 27.0996 154.316 26.8564 154.041 26.6514C153.766 26.4463 153.259 26.2646 152.521 26.1064C151.401 25.8779 150.555 25.541 149.98 25.0957C149.412 24.6445 149.128 24.0322 149.128 23.2588C149.128 22.4619 149.456 21.7764 150.112 21.2021C150.769 20.6221 151.703 20.332 152.916 20.332C153.654 20.332 154.352 20.4316 155.008 20.6309C155.67 20.8301 156.188 21.085 156.563 21.3955L156.59 23.7598ZM157.952 28.4619L159.191 28.1982V18.0996L157.82 17.8359V16.2891H161.749V21.7031C162.048 21.2637 162.414 20.9238 162.848 20.6836C163.281 20.4375 163.762 20.3145 164.289 20.3145C165.285 20.3145 166.064 20.6455 166.627 21.3076C167.195 21.9639 167.479 22.9805 167.479 24.3574V28.1982L168.71 28.4619V30H163.806V28.4619L164.913 28.1982V24.3398C164.913 23.6016 164.781 23.0801 164.518 22.7754C164.26 22.4648 163.873 22.3096 163.357 22.3096C163 22.3096 162.687 22.374 162.417 22.5029C162.153 22.6318 161.931 22.8135 161.749 23.0479V28.1982L162.856 28.4619V30H157.952V28.4619Z" fill="black"/>
</svg>
